<ttFont>
<head>
    <!-- Most of this table will be recalculated by the compiler -->
    <tableVersion value="1.0"/>
    <fontRevision value="1.0"/>
    <checkSumAdjustment value="0x99eb4939"/>
    <magicNumber value="0x5f0f3cf5"/>
    <flags value="00000000 00000011"/>
    <unitsPerEm value="2048"/>
    <created value="Thu Aug 15 18:59:38 2019"/>
    <modified value="Fri Aug 16 02:19:18 2019"/>
    <xMin value="-475"/>
    <yMin value="-506"/>
    <xMax value="3625"/>
    <yMax value="1983"/>
<macStyle value="00000000 00000000"/>
    <lowestRecPPEM value="3"/>
    <fontDirectionHint value="2"/>
    <indexToLocFormat value="0"/>
    <glyphDataFormat value="0"/>
  </head>
          <CharString index="0">
            rmoveto
            -388 -47 0 -80 return
          </CharString>
          <CharString index="1">
            -1022 -92 callgsubr
            return
          </CharString>
          <CharString index="2">
            308 -221 215 -303 -310 -229 -218 -315 return
          </CharString>
          <CharString index="3">
            rmoveto
            -15 callsubr
            59 callsubr
            endchar
          </CharString>
          <CharString index="4">
            -608 -88 vlineto
            155 -15 return
          </CharString>
          <CharString index="5">
            48 callsubr
            endchar
          </CharString>
          <CharString index="6">
            rmoveto
            310 230 219 314 return
          </CharString>
          <CharString index="7">
            172 callsubr
            endchar
          </CharString>
          <CharString index="8">
            17 -19 -89 vvcurveto
            -106 callsubr
            return
          </CharString>
          <CharString index="9">
            465 -354 77 callsubr
            78 callsubr
            63 callsubr
            endchar
          </CharString>
          <CharString index="10">
            rmoveto
            69 callsubr
            return
          </CharString>
          <CharString index="11">
            rmoveto
            -45 callsubr
            1167 vlineto
            -87 callsubr
            -34 callsubr
            endchar
          </CharString>
          <CharString index="12">
            -2 callsubr
            -615 3 callsubr
            return
          </CharString>
          <CharString index="13">
            -69 callsubr
            endchar
          </CharString>
          <CharString index="14">
            52 callsubr
            endchar
          </CharString>
          <CharString index="15">
            rmoveto
            -709 vlineto
            -375 281 -185 304 365 231 222 359 3 vhcurveto
            6 674 1 95 18 21 144 15 rlinecurve
            89 -473 -88 vlineto
            155 -15 15 -21 1 -98 5 -649 rcurveline
            156 callsubr
            endchar
          </CharString>
          <CharString index="16">
            88 callsubr
            -483 vlineto
            -211 138 -122 205 161 116 75 96 57 vhcurveto
            -160 vlineto
            return
          </CharString>
          <CharString index="17">
            rmoveto
            -326 225 -194 292 return
          </CharString>
          <CharString index="18">
            57 callsubr
            endchar
          </CharString>
          <CharString index="19">
            518 -98 callgsubr
            return
          </CharString>
          <CharString index="20">
            14 419 rlineto
            -82 hlineto
            return
          </CharString>
          <CharString index="21">
            -88 hlineto
            155 -15 17 -19 -89 vvcurveto
            return
          </CharString>
          <CharString index="22">
            rmoveto
            1022 35 callsubr
            return
          </CharString>
          <CharString index="23">
            28 callsubr
            endchar
          </CharString>
          <CharString index="24">
            1597 rmoveto
            66 53 49 65 66 -53 49 -66 return
          </CharString>
          <CharString index="25">
            549 88 vlineto
            -143 13 -18 14 76 vvcurveto
            return
          </CharString>
          <CharString index="26">
            -10 84 callsubr
            return
          </CharString>
          <CharString index="27">
            2 callsubr
            -73 -58 -52 -69 -70 58 -52 73 hvcurveto
            endchar
          </CharString>
          <CharString index="28">
            1855 rmoveto
            -195 -150 -192 150 return
          </CharString>
          <CharString index="29">
            -65 -52 -50 -66 -64 52 -50 65 hvcurveto
            return
          </CharString>
          <CharString index="30">
            rmoveto
            337 -541 rlineto
            -403 vlineto
            -97 -22 -24 -164 -16 vhcurveto
            -88 636 88 vlineto
            -164 16 -21 24 97 vvcurveto
            413 vlineto
            return
          </CharString>
          <CharString index="31">
            1566 rmoveto
            196 150 192 -150 110 0 -215 290 return
          </CharString>
          <CharString index="32">
            rmoveto
            310 -760 -83 -149 -107 -188 -68 -117 rlinecurve
            -5 223 vlineto
            167 460 83 202 229 556 56 136 20 13 101 15 rlinecurve
            88 -407 -88 vlineto
            135 -11 21 -22 -44 -114 rrcurveto
            -198 -509 -189 509 -41 113 20 22 134 12 rlinecurve
            88 -534 -88 vlineto
            98 -20 24 -20 50 -123 rrcurveto
            endchar
          </CharString>
          <CharString index="33">
            36 77 47 107 hhcurveto
            139 85 -82 -153 hvcurveto
            -478 97 callsubr
            518 -99 callgsubr
            529 vlineto
            206 -142 120 -210 return
          </CharString>
          <CharString index="34">
            rmoveto
            -67 -53 -48 -66 -65 53 -51 callgsubr
          </CharString>
          <CharString index="35">
            599 88 vlineto
            -144 15 -18 17 86 vvcurveto
            return
          </CharString>
          <CharString index="36">
            rmoveto
            -66 -53 -48 -66 -65 53 -50 66 return
          </CharString>
          <CharString index="37">
            -47 0 -80 -95 callsubr
            return
          </CharString>
          <CharString index="38">
            532 87 callsubr
            return
          </CharString>
          <CharString index="39">
            1598 rmoveto
            65 52 return
          </CharString>
          <CharString index="40">
            50 64 66 -52 50 -65 return
          </CharString>
          <CharString index="41">
            329 526 95 -57 callgsubr
            160 -18 5 181 callsubr
            31 callgsubr
            endchar
          </CharString>
          <CharString index="42">
            82 callsubr
            -260 168 -57 0 -259 -168 rlineto
            return
          </CharString>
          <CharString index="43">
            -373 rlineto
            81 hlineto
            41 227 67 34 268 9 57 return
          </CharString>
          <CharString index="44">
            rmoveto
            156 101 75 115 115 return
          </CharString>
          <CharString index="45">
            358 hmoveto
            -24 callsubr
            return
          </CharString>
          <CharString index="46">
            1022 19 callgsubr
            -446 -688 445 8 callsubr
            -54 callsubr
            -106 callsubr
            return
          </CharString>
          <CharString index="47">
            1566 rmoveto
            93 callgsubr
            return
          </CharString>
          <CharString index="48">
            -388 -48 0 -78 78 -20 rlineto
            57 -14 9 -15 -55 vvcurveto
            10 callsubr
            return
          </CharString>
          <CharString index="49">
            1566 rmoveto
            314 280 rlineto
            10 return
          </CharString>
          <CharString index="50">
            609 vlineto
            57 -74 callsubr
            return
          </CharString>
          <CharString index="51">
            2 rcurveline
            -1118 -91 callgsubr
            return
          </CharString>
          <CharString index="52">
            636 88 vlineto
            -165 16 -21 return
          </CharString>
          <CharString index="53">
            89 -599 0 callsubr
            return
          </CharString>
          <CharString index="54">
            1169 rmoveto
            110 hlineto
            return
          </CharString>
          <CharString index="55">
            -240 142 -76 149 106 119 42 45 52 vhcurveto
            101 callgsubr
            return
          </CharString>
          <CharString index="56">
            1169 rmoveto
            336 363 rlineto
            12 -263 vlineto
            -183 -375 rlineto
            return
          </CharString>
          <CharString index="57">
            rmoveto
            -383 -70 callsubr
            -88 callsubr
            609 vlineto
            57 return
          </CharString>
          <CharString index="58">
            -114 0 239 -376 169 0 239 376 rlineto
            return
          </CharString>
          <CharString index="59">
            -388 -47 0 -78 78 -20 rlineto
            57 -14 9 -15 -55 vvcurveto
            return
          </CharString>
          <CharString index="60">
            1336 1444 rmoveto
            -1272 hlineto
            -11 return
          </CharString>
          <CharString index="61">
            1169 rmoveto
            214 200 209 -200 return
          </CharString>
          <CharString index="62">
            -1122 -86 callsubr
            -106 callsubr
            return
          </CharString>
          <CharString index="63">
            1268 rmoveto
            625 148 -625 hlineto
            return
          </CharString>
          <CharString index="64">
            356 hmoveto
            65 52 -67 callsubr
            return
          </CharString>
          <CharString index="65">
            1169 rmoveto
            92 callgsubr
            return
          </CharString>
          <CharString index="66">
            -176 375 rlineto
            -273 -12 hlineto
            return
          </CharString>
          <CharString index="67">
            rmoveto
            581 134 -581 hlineto
            endchar
          </CharString>
          <CharString index="68">
            -262 vlineto
            -160 -290 rlineto
            return
          </CharString>
          <CharString index="69">
            114 0 -52 callgsubr
            return
          </CharString>
          <CharString index="70">
            59 15 13 115 13 vhcurveto
            88 return
          </CharString>
          <CharString index="71">
            -146 -107 callsubr
            return
          </CharString>
          <CharString index="72">
            rmoveto
            -159 111 -110 143 -35 vhcurveto
            -147 -45 -87 -75 -104 vvcurveto
            -102 92 -65 124 -9 vhcurveto
            -185 -32 -95 -75 -100 vvcurveto
            -152 180 -107 324 328 219 151 211 175 -141 102 -245 vhcurveto
            -243 hlineto
            -98 -53 32 60 46 33 39 78 26 hvcurveto
            -8 53 34 -3 36 hhcurveto
            238 207 127 216 90 -42 88 -63 43 hvcurveto
            252 -14 0 120 -369 -21 rlineto
            27 -58 -84 17 -89 hhcurveto
            -260 -193 -145 -209 hvcurveto
            245 13 rmoveto
            134 81 99 121 133 83 -93 -151 -136 -88 -97 -114 -121 -95 87 157 vhcurveto
            -68 -890 rmoveto
            78 54 55 96 17 vhcurveto
            245 hlineto
            151 63 -54 -84 -107 -121 -80 -196 -187 -105 72 103 hvcurveto
            endchar
          </CharString>
          <CharString index="73">
            -53 -273 -61 -27 -278 -9 -270 -9 rcurveline
            587 269 vlineto
            70 60 callgsubr
            -67 hhcurveto
            -269 553 hlineto
            267 -9 228 -7 69 -42 50 -214 rlinecurve
            82 hlineto
            return
          </CharString>
          <CharString index="74">
            -290 -204 271 383 358 178 246 316 -24 callgsubr
          </CharString>
          <CharString index="75">
            73 59 54 73 73 -59 54 -73 -73 -59 -54 -73 -73 59 -54 73 hvcurveto
            return
          </CharString>
          <CharString index="76">
            -111 0 215 -289 174 0 215 289 rlineto
            return
          </CharString>
          <CharString index="77">
            27 callsubr
            -78 -62 -57 -78 -78 62 -57 78 hvcurveto
            return
          </CharString>
          <CharString index="78">
            1544 rmoveto
            -226 -12 hlineto
            286 -363 rlineto
            return
          </CharString>
          <CharString index="79">
            1214 rmoveto
            82 65 60 82 81 -65 60 -82 return
          </CharString>
          <CharString index="80">
            1623 rmoveto
            563 135 -563 hlineto
            return
          </CharString>
          <CharString index="81">
            623 88 vlineto
            -165 16 -21 24 97 vvcurveto
            return
          </CharString>
          <CharString index="82">
            475 1444 -14 callsubr
            return
          </CharString>
          <CharString index="83">
            56 44 41 55 55 -44 43 -56 hvcurveto
            return
          </CharString>
          <CharString index="84">
            -66 -53 -49 -66 -65 53 -49 66 hvcurveto
            return
          </CharString>
          <CharString index="85">
            -82 -65 -60 -81 -82 65 -60 82 hvcurveto
            return
          </CharString>
          <CharString index="86">
            -162 -119 -72 -94 -57 vhcurveto
            return
          </CharString>
          <CharString index="87">
            -518 12 callsubr
            return
          </CharString>
          <CharString index="88">
            211 -85 callsubr
            return
          </CharString>
          <CharString index="89">
            67 53 -84 callgsubr
          </CharString>
          <CharString index="90">
            rmoveto
            270 -759 151 0 254 698 242 -698 151 0 279 759 50 136 22 12 98 15 rlinecurve
            88 -379 -88 vlineto
            114 -9 18 -24 -39 -114 rrcurveto
            -173 -501 -162 501 -36 111 17 28 103 8 rlinecurve
            88 -478 -88 vlineto
            101 -8 21 -28 -40 -111 rrcurveto
            -175 -502 -163 502 -37 113 18 24 112 10 rlinecurve
            88 -510 -88 vlineto
            97 -20 31 -20 43 -123 rrcurveto
            endchar
          </CharString>
          <CharString index="91">
            rmoveto
            -467 351 -285 411 208 201 55 77 115 vhcurveto
            387 vlineto
            88 15 15 155 15 vhcurveto
            87 -598 -87 vlineto
            174 -15 14 -14 -87 vvcurveto
            -334 vlineto
            -41 -59 -88 -22 -109 hhcurveto
            -292 -204 271 383 358 -33 callgsubr
            endchar
          </CharString>
          <CharString index="92">
            -427 1163 -215 0 -426 -1157 -60 -160 -23 -24 -131 -15 rlinecurve
            -88 481 88 vlineto
            -160 20 -20 27 51 148 rrcurveto
            71 204 510 0 72 -204 51 -147 -20 -28 -160 -20 rlinecurve
            -88 return
          </CharString>
          <CharString index="93">
            rmoveto
            -433 -88 hlineto
            145 -17 18 -23 -106 vvcurveto
            -4 -988 rlineto
            -97 -17 -19 -145 -18 vhcurveto
            -88 473 88 vlineto
            -152 15 -18 19 -1 103 rrcurveto
            -19 967 791 -1192 270 0 7 1222 return
          </CharString>
          <CharString index="94">
            rmoveto
            -8 -309 rlineto
            82 hlineto
            48 171 40 26 150 5 rrcurveto
            231 8 -558 -832 rlineto
            -79 847 vlineto
            8 164 callsubr
            endchar
          </CharString>
          <CharString index="95">
            rmoveto
            -468 351 -284 411 200 198 60 67 92 vhcurveto
            12 327 rlineto
            -48 callgsubr
            return
          </CharString>
          <CharString index="96">
            rmoveto
            73 58 52 70 69 -58 52 -73 33 callsubr
          </CharString>
          <CharString index="97">
            1 97 16 19 144 18 rlinecurve
            88 -472 -88 vlineto
            151 -15 18 -19 1 -103 19 -971 rcurveline
            return
          </CharString>
          <CharString index="98">
            1566 rmoveto
            313 280 rlineto
            10 -261 vlineto
            -161 -290 rlineto
            return
          </CharString>
          <CharString index="99">
            1169 rmoveto
            335 363 rlineto
            12 -263 vlineto
            -183 -375 rlineto
            return
          </CharString>
          <CharString index="100">
            15 455 rlineto
            -82 hlineto
            -67 -301 -82 -38 -218 -7 return
          </CharString>
          <CharString index="101">
            1694 503 206 60 callsubr
            return
          </CharString>
          <CharString index="102">
            1543 rmoveto
            -214 -201 -209 201 return
          </CharString>
          <CharString index="103">
            338 164 185 145 345 vvcurveto
            endchar
          </CharString>
          <CharString index="104">
            448 1023 -50 callsubr
            return
          </CharString>
          <CharString index="105">
            78 -19 rlineto
            57 -14 9 -14 -56 vvcurveto
            return
          </CharString>
          <CharString index="106">
            -67 -53 -49 -66 -65 53 -49 67 hvcurveto
            return
          </CharString>
          <CharString index="107">
            -88 vlineto
            155 -15 17 -19 -89 vvcurveto
            return
          </CharString>
          <CharString index="108">
            rmoveto
            582 134 -582 hlineto
            endchar
          </CharString>
          <CharString index="109">
            rmoveto
            72 58 52 70 69 -58 52 -72 return
          </CharString>
          <CharString index="110">
            vlineto
            -62 -17 -15 -127 -13 vhcurveto
            -88 return
          </CharString>
          <CharString index="111">
            1597 233 callsubr
            return
          </CharString>
          <CharString index="112">
            1543 rmoveto
            -213 -201 return
          </CharString>
          <CharString index="113">
            -222 -147 vhcurveto
            40 -76 rlineto
            return
          </CharString>
          <CharString index="114">
            -174 0 -215 -290 rlineto
            return
          </CharString>
          <CharString index="115">
            vlineto
            86 18 17 144 15 vhcurveto
            return
          </CharString>
          <CharString index="116">
            1693 103 721 rmoveto
            return
          </CharString>
          <CharString index="117">
            -1084 3 callsubr
            return
          </CharString>
          <CharString index="118">
            785 187 293 rmoveto
            return
          </CharString>
          <CharString index="119">
            -88 vlineto
            76 callsubr
            return
          </CharString>
          <CharString index="120">
            rmoveto
            371 -1163 212 0 336 1077 323 -1077 216 0 368 1158 51 161 30 22 131 15 rlinecurve
            88 -479 -88 vlineto
            158 -20 12 -24 -42 -147 rrcurveto
            -267 -927 -271 924 -44 148 12 26 160 20 rlinecurve
            88 -593 -88 vlineto
            158 -20 11 -24 -41 -147 rrcurveto
            -265 -929 -273 926 -43 148 11 26 160 20 rlinecurve
            88 -610 -88 vlineto
            124 -15 35 -22 49 -156 rrcurveto
            endchar
          </CharString>
          <CharString index="121">
            rmoveto
            179 125 85 134 -8 hvcurveto
            -98 hlineto
            -58 -2 -84 -39 -112 hhcurveto
            -111 -85 39 58 -2 hvcurveto
            -98 hlineto
            -134 -8 125 -85 179 hhcurveto
            return
          </CharString>
          <CharString index="122">
            rmoveto
            243 -193 151 -383 vhcurveto
            -627 -86 callsubr
            -106 callsubr
            -72 callsubr
            146 callsubr
            endchar
          </CharString>
          <CharString index="123">
            rmoveto
            154 45 147 127 191 vvcurveto
            125 -65 90 -106 -106 -57 -88 -108 vhcurveto
            92 -6 62 return
          </CharString>
          <CharString index="124">
            rmoveto
            199 180 195 -180 105 0 -222 338 -157 0 -222 -338 rlineto
            endchar
          </CharString>
          <CharString index="125">
            rmoveto
            198 180 195 -180 106 0 -222 338 -158 0 -222 -338 rlineto
            endchar
          </CharString>
          <CharString index="126">
            rmoveto
            174 141 62 86 74 hvcurveto
            149 callsubr
            -320 226 -200 284 vhcurveto
            endchar
          </CharString>
          <CharString index="127">
            24 97 vvcurveto
            1118 vlineto
            58 -2 268 -9 67 -34 40 -227 rlinecurve
            82 hlineto
            return
          </CharString>
          <CharString index="128">
            rmoveto
            487 167 vlineto
            431 157 callsubr
            221 callsubr
            endchar
          </CharString>
          <CharString index="129">
            1295 425 1023 -107 callsubr
            -91 callsubr
            return
          </CharString>
          <CharString index="130">
            1222 1154 hmoveto
            -7 callsubr
            24 callsubr
            return
          </CharString>
          <CharString index="131">
            -217 -8 rcurveline
            1123 65 callgsubr
            -106 callsubr
            vlineto
            return
          </CharString>
          <CharString index="132">
            -110 0 214 -289 175 0 214 289 rlineto
            return
          </CharString>
          <CharString index="133">
            -90 73 -131 -79 -66 -25 -31 -26 hvcurveto
            -78 vlineto
            8 18 return
          </CharString>
          <CharString index="134">
            1220 rmoveto
            78 62 57 78 78 -62 57 -78 return
          </CharString>
          <CharString index="135">
            608 88 vlineto
            -155 15 -16 19 89 vvcurveto
            return
          </CharString>
          <CharString index="136">
            1503 744 109 callsubr
            return
          </CharString>
          <CharString index="137">
            1211 rmoveto
            100 85 83 209 hvcurveto
            return
          </CharString>
          <CharString index="138">
            1129 96 497 -90 callsubr
            return
          </CharString>
          <CharString index="139">
            -46 -47 42 -35 53 hvcurveto
            341 hmoveto
            54 return
          </CharString>
          <CharString index="140">
            -72 -58 -52 -69 -70 58 -52 72 hvcurveto
            endchar
          </CharString>
          <CharString index="141">
            -66 -52 -50 -66 -64 52 -50 66 hvcurveto
            return
          </CharString>
          <CharString index="142">
            vlineto
            89 16 19 155 15 vhcurveto
            88 return
          </CharString>
          <CharString index="143">
            rlineto
            -78 vlineto
            2 9 16 2 16 hhcurveto
            return
          </CharString>
          <CharString index="144">
            1169 rmoveto
            213 200 return
          </CharString>
          <CharString index="145">
            -946 vlineto
            -314 -76 -144 return
          </CharString>
          <CharString index="146">
            -175 0 -214 -290 rlineto
            return
          </CharString>
          <CharString index="147">
            -164 -121 -75 -96 -57 vhcurveto
            return
          </CharString>
          <CharString index="148">
            -845 -97 callsubr
            return
          </CharString>
          <CharString index="149">
            -191 -107 callsubr
            return
          </CharString>
          <CharString index="150">
            126 67 124 124 return
          </CharString>
          <CharString index="151">
            114 -144 203 vhcurveto
            return
          </CharString>
          <CharString index="152">
            -25 -31 -27 hvcurveto
            -78 vlineto
            8 return
          </CharString>
          <CharString index="153">
            -26 -58 -54 -53 -27 -68 -55 return
          </CharString>
          <CharString index="154">
            hhcurveto
            -27 -24 14 21 -29 hvcurveto
            return
          </CharString>
          <CharString index="155">
            rmoveto
            153 125 69 83 60 hvcurveto
            -93 25 82 -53 108 hhcurveto
            78 63 25 26 37 hvcurveto
            82 vlineto
            -6 -14 -20 -3 -21 hhcurveto
            -58 -49 31 88 hvcurveto
            476 vlineto
            228 -153 103 -247 -245 -192 -102 -142 -71 55 -49 74 74 55 51 68 41 -20 36 -30 21 vhcurveto
            19 43 52 10 57 hhcurveto
            142 95 -60 -175 hvcurveto
            -72 vlineto
            -234 -51 rlineto
            -283 -62 -113 -99 -162 vvcurveto
            -149 125 -108 176 vhcurveto
            -58 298 rmoveto
            102 70 59 184 41 vhcurveto
            133 28 rlineto
            -295 vlineto
            -59 -41 -76 -38 -90 hhcurveto
            -104 -76 60 102 hvcurveto
            return
          </CharString>
          <CharString index="156">
            rmoveto
            -112 -160 -35 -26 -133 -13 rrcurveto
            -88 498 88 vlineto
            -164 21 -7 31 82 125 rrcurveto
            230 348 236 -348 85 -124 -9 -32 -164 -21 rlinecurve
            -88 639 88 vlineto
            -111 21 -42 24 -75 110 rrcurveto
            -346 509 288 413 107 152 37 26 131 13 rlinecurve
            88 -496 -88 vlineto
            164 -21 6 -31 -82 -125 rrcurveto
            -217 -335 -229 335 -83 124 9 32 164 21 rlinecurve
            88 -640 -88 vlineto
            113 -21 40 -24 75 -110 337 -495 rcurveline
            endchar
          </CharString>
          <CharString index="157">
            rmoveto
            -375 282 -185 304 359 236 220 361 4 vhcurveto
            8 833 rlineto
            -1 10 11 0 10 hhcurveto
            158 79 69 113 89 -55 90 -72 55 hvcurveto
            -88 hlineto
            21 -29 15 -57 -55 vvcurveto
            -118 -1 -74 -95 -192 hhcurveto
            -142 -88 hlineto
            163 -21 15 -19 -94 vvcurveto
            5 -656 rlineto
            -285 2 -148 -144 -243 hhcurveto
            -228 -174 143 273 hvcurveto
            669 vlineto
            94 21 19 156 21 vhcurveto
            88 -600 -88 vlineto
            137 -20 21 -20 -94 vvcurveto
            endchar
          </CharString>
          <CharString index="158">
            rmoveto
            -473 -88 hlineto
            144 -16 22 -23 -3 -107 rrcurveto
            -24 -988 -3 -98 -15 -19 -143 -17 rlinecurve
            -88 463 88 vlineto
            -146 17 -17 20 102 vvcurveto
            1 996 471 -1223 141 0 83 241 368 983 21 -1018 2 -86 -18 -17 -146 -15 rlinecurve
            -88 595 88 vlineto
            -151 15 -18 18 -2 90 rrcurveto
            -23 1022 -2 90 22 18 152 15 rlinecurve
            88 vlineto
            -482 1 -391 -1134 rlineto
            endchar
          </CharString>
          <CharString index="159">
            176 142 61 87 76 vhcurveto
            88 vlineto
            -55 -61 -102 -35 -97 hhcurveto
            -232 -152 150 243 -18 hvcurveto
            684 hlineto
            2 19 2 29 29 vvcurveto
            271 -158 168 -280 -293 -206 -217 -318 vhcurveto
            497 418 rmoveto
            136 77 -103 -188 hvcurveto
            -7 -461 vlineto
            202 14 98 96 136 hhcurveto
            return
          </CharString>
          <CharString index="160">
            rmoveto
            290 -236 143 -377 vhcurveto
            -605 -86 callsubr
            -106 callsubr
            -26 callsubr
            326 168 vlineto
            364 249 162 298 hvcurveto
            -282 -16 rmoveto
            -219 -136 -108 -276 -12 vhcurveto
            -87 -3 0 690 87 -4 rlineto
            276 -11 136 -120 -213 vvcurveto
            endchar
          </CharString>
          <CharString index="161">
            295 -144 232 -216 125 vhcurveto
            -3 21 23 -3 23 hhcurveto
            176 122 58 135 hvcurveto
            1 91 -60 88 -76 57 rrcurveto
            -87 hlineto
            19 -29 16 -61 -1 -50 rrcurveto
            -125 -67 -83 -142 vhcurveto
            -99 -109 25 -141 -66 callgsubr
            63 callsubr
            endchar
          </CharString>
          <CharString index="162">
            1283 96 492 113 callsubr
            -45 callgsubr
            return
          </CharString>
          <CharString index="163">
            -54 -272 -85 -25 -271 -9 rrcurveto
            -341 -12 820 1261 rlineto
            82 -1094 vlineto
            -12 -373 rlineto
            82 hlineto
            43 213 50 40 248 7 rrcurveto
            382 12 -819 -1261 rlineto
            -82 vlineto
            return
          </CharString>
          <CharString index="164">
            384 46 0 79 -77 19 rlineto
            -58 14 -9 15 55 vvcurveto
            807 vlineto
            -389 -47 0 -80 79 -19 rlineto
            56 -14 9 -14 -56 vvcurveto
            -566 vlineto
            -57 -35 -73 -47 -99 hhcurveto
            -139 -82 84 157 hvcurveto
            return
          </CharString>
          <CharString index="165">
            537 vlineto
            56 50 125 39 114 hhcurveto
            46 45 -5 -8 24 hvcurveto
            13 19 8 34 34 vvcurveto
            71 -33 61 -88 -98 -94 -76 -158 -117 vhcurveto
            return
          </CharString>
          <CharString index="166">
            618 88 vlineto
            -126 15 -28 24 -58 154 rrcurveto
            -821 314 rmoveto
            216 623 218 -623 rlineto
            return
          </CharString>
          <CharString index="167">
            rmoveto
            477 688 -477 vlineto
            -86 -16 -17 -145 -15 vhcurveto
            -88 597 88 vlineto
            -151 15 -20 18 90 vvcurveto
            return
          </CharString>
          <CharString index="168">
            552 vlineto
            310 -5 0 120 -310 -6 rlineto
            206 -51 vlineto
            -326 -253 rlineto
            -67 135 vlineto
            return
          </CharString>
          <CharString index="169">
            rmoveto
            -392 -47 0 -80 79 -19 rlineto
            60 -14 9 -14 -56 vvcurveto
            -483 vlineto
            -211 189 callsubr
            endchar
          </CharString>
          <CharString index="170">
            287 176 -299 -349 -334 -128 -276 -309 -288 -175 299 349 vhcurveto
            return
          </CharString>
          <CharString index="171">
            651 453 1491 rmoveto
            -48 callsubr
            10 callsubr
            -69 callsubr
            return
          </CharString>
          <CharString index="172">
            -46 -109 hhcurveto
            -108 -83 46 68 -1 hvcurveto
            -96 hlineto
            -157 -8 122 -101 174 hhcurveto
            return
          </CharString>
          <CharString index="173">
            rmoveto
            94 78 74 188 hvcurveto
            -93 hlineto
            -88 -3 -20 -31 -39 hhcurveto
            -26 -24 14 21 -28 hvcurveto
            return
          </CharString>
          <CharString index="174">
            vhcurveto
            -30 11 rlineto
            19 -42 -41 11 -47 hhcurveto
            -92 -75 -65 -138 hvcurveto
            96 hlineto
            51 return
          </CharString>
          <CharString index="175">
            1228 rmoveto
            45 callgsubr
            474 hmoveto
            45 callgsubr
            return
          </CharString>
          <CharString index="176">
            -465 353 -287 388 454 293 333 421 return
          </CharString>
          <CharString index="177">
            1178 rmoveto
            203 114 144 153 20 -1 20 return
          </CharString>
          <CharString index="178">
            25 26 -7 -15 38 vhcurveto
            30 -12 rlineto
            -17 42 41 -12 47 hhcurveto
            return
          </CharString>
          <CharString index="179">
            1849 rmoveto
            591 -78 0 78 -591 133 rlineto
            return
          </CharString>
          <CharString index="180">
            1575 rmoveto
            98 81 77 197 hvcurveto
            -99 hlineto
            -91 -3 return
          </CharString>
          <CharString index="181">
            1551 rmoveto
            -112 -82 -45 -45 -44 hvcurveto
            -80 vlineto
            22 return
          </CharString>
          <CharString index="182">
            1211 rmoveto
            101 84 83 209 hvcurveto
            -100 hlineto
            -98 -3 return
          </CharString>
          <CharString index="183">
            127 -13 17 -15 -62 vvcurveto
            -654 3 callsubr
            return
          </CharString>
          <CharString index="184">
            287 -387 -454 -293 -333 -421 vhcurveto
            return
          </CharString>
          <CharString index="185">
            294 20 rmoveto
            334 128 276 309 return
          </CharString>
          <CharString index="186">
            1534 rmoveto
            157 -79 callgsubr
            return
          </CharString>
          <CharString index="187">
            -10 hlineto
            -56 -44 -42 -55 -55 44 -42 56 hvcurveto
            return
          </CharString>
          <CharString index="188">
            1575 rmoveto
            97 82 77 197 hvcurveto
            return
          </CharString>
          <CharString index="189">
            288 110 288 -110 0 94 return
          </CharString>
          <CharString index="190">
            16 23 -34 hvcurveto
            -86 vlineto
            -36 45 74 -23 return
          </CharString>
          <CharString index="191">
            hlineto
            -56 -44 -43 -55 -55 44 -41 56 hvcurveto
            return
          </CharString>
          <CharString index="192">
            1594 rmoveto
            -14 callgsubr
            return
          </CharString>
          <CharString index="193">
            -210 201 68 callgsubr
            return
          </CharString>
          <CharString index="194">
            88 vlineto
            -127 13 -17 15 62 vvcurveto
            return
          </CharString>
          <CharString index="195">
            77 -19 rlineto
            58 -14 9 -14 -56 vvcurveto
            return
          </CharString>
          <CharString index="196">
            56 44 42 55 55 -44 42 -56 hvcurveto
            return
          </CharString>
          <CharString index="197">
            -29 23 rlineto
            36 -50 -43 25 -60 hhcurveto
            return
          </CharString>
          <CharString index="198">
            -40 36 -54 hvcurveto
            -11 hlineto
            -53 -41 -36 return
          </CharString>
          <CharString index="199">
            -42 36 -53 hvcurveto
            -11 hlineto
            -53 -42 -36 return
          </CharString>
          <CharString index="200">
            -66 -53 -49 -65 -67 53 -49 66 hvcurveto
            return
          </CharString>
          <CharString index="201">
            -77 -63 -57 -78 -78 62 -57 78 hvcurveto
            return
          </CharString>
          <CharString index="202">
            rmoveto
            94 73 65 138 hvcurveto
            -96 hlineto
            return
          </CharString>
          <CharString index="203">
            vlineto
            89 17 19 155 15 vhcurveto
            88 return
          </CharString>
          <CharString index="204">
            vlineto
            -60 -15 -13 -114 -13 vhcurveto
            -88 return
          </CharString>
          <CharString index="205">
            -1192 -101 callsubr
            return
          </CharString>
          <CharString index="206">
            619 -23 -101 callsubr
            return
          </CharString>
          <CharString index="207">
            rmoveto
            -253 312 209 253 84 104 27 25 107 16 rlinecurve
            88 -416 -88 vlineto
            132 -12 11 -19 -66 -84 rrcurveto
            -158 -197 -160 197 -67 83 12 20 134 12 rlinecurve
            88 -518 -88 vlineto
            78 -16 27 -18 68 -84 rrcurveto
            254 -313 -196 -244 -91 -112 -29 -29 -118 -18 rlinecurve
            -88 427 88 vlineto
            -123 12 -19 21 74 94 rrcurveto
            145 189 158 -195 74 -91 -15 -17 -132 -13 rlinecurve
            -88 524 88 vlineto
            -82 17 -32 21 -70 86 rrcurveto
            endchar
          </CharString>
          <CharString index="208">
            rmoveto
            -166 124 -89 188 -49 vhcurveto
            88 -23 rlineto
            134 -36 52 -44 -81 vvcurveto
            -86 -79 -61 -129 -156 -115 82 150 -34 vhcurveto
            -82 hlineto
            7 -258 rlineto
            -51 82 140 -41 164 hhcurveto
            245 181 121 187 169 -111 91 -196 51 hvcurveto
            -87 23 rlineto
            -122 32 -70 39 85 vvcurveto
            85 79 51 120 135 101 -75 -135 30 vhcurveto
            81 hlineto
            -7 252 rlineto
            40 -64 -120 36 -160 hhcurveto
            -258 -161 -115 -184 hvcurveto
            return
          </CharString>
          <CharString index="209">
            rmoveto
            -80 -76 -30 -36 -43 hvcurveto
            -85 vlineto
            4 12 21 5 29 hhcurveto
            73 36 -38 -98 hvcurveto
            -85 -5 -225 -70 vvcurveto
            -228 132 -160 269 258 203 182 384 293 -102 197 -149 -92 -60 -83 -110 27 vhcurveto
            142 -38 98 -155 -194 vvcurveto
            -220 -110 -110 -153 -153 -67 103 178 vhcurveto
            65 9 229 74 vvcurveto
            172 -77 79 -142 vhcurveto
            endchar
          </CharString>
          <CharString index="210">
            1709 854 -29 rmoveto
            414 338 339 413 413 -338 339 -414 -413 -338 -339 -413 -413 338 -339 413 hvcurveto
            80 vmoveto
            -362 -297 303 369 369 297 303 362 362 298 -303 -369 -369 -298 -303 -362 hvcurveto
            return
          </CharString>
          <CharString index="211">
            rmoveto
            301 237 170 267 209 -121 138 -273 86 hvcurveto
            -116 36 rlineto
            -168 53 -93 68 128 vvcurveto
            133 97 94 185 175 135 -94 -215 41 vhcurveto
            81 hlineto
            -11 319 rlineto
            207 callsubr
            -72 92 183 -55 203 hhcurveto
            return
          </CharString>
          <CharString index="212">
            1588 199 1238 rmoveto
            -709 vlineto
            -375 281 -185 304 365 231 222 359 3 vhcurveto
            6 674 1 95 18 21 144 15 rlinecurve
            89 -473 -88 vlineto
            155 -15 15 -21 1 -98 5 -649 rcurveline
            156 callsubr
            return
          </CharString>
          <CharString index="213">
            427 1445 rmoveto
            -82 hlineto
            -240 -113 0 -56 145 32 rlineto
            -514 20 callgsubr
            return
          </CharString>
          <CharString index="214">
            rmoveto
            220 -174 122 -251 23 vhcurveto
            198 24 149 107 176 vvcurveto
            216 -191 134 -345 vhcurveto
            -656 -86 callsubr
            -106 callsubr
            196 callsubr
            endchar
          </CharString>
          <CharString index="215">
            rmoveto
            11 -714 rlineto
            -224 3 110 -95 165 hhcurveto
            110 103 40 60 53 hvcurveto
            86 vlineto
            -23 -33 -51 -14 -61 hhcurveto
            -101 -76 53 151 3 hvcurveto
            14 680 rlineto
            endchar
          </CharString>
          <CharString index="216">
            159 callsubr
            -291 -18 130 callsubr
            0 1242 97 callgsubr
            return
          </CharString>
          <CharString index="217">
            415 633 rmoveto
            195 145 150 265 259 -148 155 -182 -195 -145 -150 -264 -260 149 -155 181 hvcurveto
            return
          </CharString>
          <CharString index="218">
            184 463 12 -525 rlineto
            -47 -10 -10 -81 -9 vhcurveto
            -63 374 63 vlineto
            -85 9 -11 10 50 vvcurveto
            -13 529 rlineto
            51 12 9 85 9 vhcurveto
            63 vlineto
            return
          </CharString>
          <CharString index="219">
            -91 73 -131 -78 -66 45 callsubr
            19 36 -105 callgsubr
            -68 -59 -51 14 20 -35 hvcurveto
            -84 vlineto
            -27 39 71 -23 85 hhcurveto
            endchar
          </CharString>
          <CharString index="220">
            rmoveto
            -322 188 -193 225 151 132 73 106 55 vhcurveto
            -168 vlineto
            383 46 0 79 -76 19 rlineto
            -59 14 -9 15 55 vvcurveto
            return
          </CharString>
          <CharString index="221">
            295 92 296 -92 0 78 -267 143 -58 0 -265 -143 rlineto
            -442 41 callsubr
            -98 callsubr
          </CharString>
          <CharString index="222">
            -636 vlineto
            -279 -33 -149 -161 -137 vhcurveto
            52 -74 64 44 rlineto
            254 181 68 150 286 vvcurveto
            endchar
          </CharString>
          <CharString index="223">
            rmoveto
            52 42 35 47 46 -42 36 -52 hvcurveto
            -12 hlineto
            -53 -42 -36 32 callsubr
            27 callgsubr
            endchar
          </CharString>
          <CharString index="224">
            rmoveto
            174 122 101 157 -8 hvcurveto
            -96 hlineto
            -68 -1 -82 65 callsubr
            endchar
          </CharString>
          <CharString index="225">
            117 hlineto
            214 375 rmoveto
            -211 -12 hlineto
            190 -363 rlineto
            112 hlineto
            return
          </CharString>
          <CharString index="226">
            -100 hlineto
            -98 -4 -21 -34 -42 hhcurveto
            -28 -26 15 23 -30 hvcurveto
            -31 25 rlineto
            39 return
          </CharString>
          <CharString index="227">
            157 170 127 131 -128 494 -150 hlineto
            -393 return
          </CharString>
          <CharString index="228">
            85 69 71 85 87 -69 69 -85 -85 -69 -69 -87 -85 69 -71 85 hvcurveto
            return
          </CharString>
          <CharString index="229">
            12 rlineto
            17 -42 -41 11 -47 hhcurveto
            -92 -75 -65 -137 hvcurveto
            96 hlineto
            50 return
          </CharString>
          <CharString index="230">
            0 296 1849 rmoveto
            133 vlineto
            -591 -133 rlineto
            -78 vlineto
            return
          </CharString>
          <CharString index="231">
            1856 rmoveto
            -224 -10 hlineto
            265 -280 rlineto
            116 hlineto
            return
          </CharString>
          <CharString index="232">
            355 hmoveto
            66 51 50 64 66 -51 50 -66 -78 callsubr
            return
          </CharString>
          <CharString index="233">
            rmoveto
            322 -188 193 -225 -151 -132 -74 -107 return
          </CharString>
          <CharString index="234">
            1849 rmoveto
            133 vlineto
            -590 -133 rlineto
            -78 vlineto
            return
          </CharString>
          <CharString index="235">
            195 145 150 264 259 -148 156 return
          </CharString>
          <CharString index="236">
            15 vhcurveto
            88 -598 -88 vlineto
            146 -15 16 -17 -86 vvcurveto
            return
          </CharString>
          <CharString index="237">
            rmoveto
            -377 -224 -232 -346 -11 vhcurveto
            -139 -5 return
          </CharString>
          <CharString index="238">
            rmoveto
            157 100 75 115 115 -90 73 -131 -79 return
          </CharString>
          <CharString index="239">
            14 20 -35 hvcurveto
            -84 vlineto
            -27 39 71 -23 84 hhcurveto
            endchar
          </CharString>
          <CharString index="240">
            -52 -29 -68 -59 -51 14 20 -35 -41 callgsubr
          </CharString>
          <CharString index="241">
            rmoveto
            160 hlineto
            917 1444 rlineto
            -161 hlineto
            return
          </CharString>
          <CharString index="242">
            85 rmoveto
            -94 -54 114 225 220 50 100 return
          </CharString>
          <CharString index="243">
            62 16 15 128 13 vhcurveto
            88 -518 -88 vlineto
            return
          </CharString>
          <CharString index="244">
            1623 rmoveto
            564 135 -564 hlineto
            return
          </CharString>
          <CharString index="245">
            1534 rmoveto
            157 -80 callgsubr
            return
          </CharString>
          <CharString index="246">
            1202 889 hmoveto
            147 callsubr
            return
          </CharString>
          <CharString index="247">
            67 124 124 -104 68 -128 3 hvcurveto
            return
          </CharString>
          <CharString index="248">
            rmoveto
            96 76 56 117 hvcurveto
            -99 hlineto
            -43 -26 return
          </CharString>
          <CharString index="249">
            rmoveto
            180 142 96 172 43 hvcurveto
            -166 80 178 -102 184 hhcurveto
            174 139 62 86 73 hvcurveto
            88 vlineto
            -55 -58 -101 -35 -97 hhcurveto
            -230 -154 153 247 -15 hvcurveto
            667 hlineto
            2 22 2 28 26 vvcurveto
            268 -155 166 -272 -134 -117 -53 -92 -76 vhcurveto
            96 -54 -109 49 -160 hhcurveto
            -238 -170 -106 -127 -70 53 -53 73 77 56 55 70 35 -16 32 -25 21 hvcurveto
            16 40 47 9 54 hhcurveto
            148 90 -82 -168 hvcurveto
            -58 vlineto
            -212 -37 rlineto
            -285 -51 -131 -108 -169 vvcurveto
            -164 129 -101 178 vhcurveto
            777 938 rmoveto
            136 69 -100 -185 hvcurveto
            -6 -443 vlineto
            199 16 96 92 126 hhcurveto
            -677 -802 rmoveto
            -104 -65 61 103 104 66 68 207 38 hvcurveto
            117 22 rlineto
            -133 vlineto
            -182 -101 -81 -120 vhcurveto
            endchar
          </CharString>
          <CharString index="250">
            rmoveto
            -1041 hlineto
            -588 -1166 -76 -153 -37 -24 -128 -13 rlinecurve
            -88 489 88 vlineto
            -144 18 -22 39 66 137 rrcurveto
            136 279 472 0 5 -355 rlineto
            -86 -17 -17 -146 -15 vhcurveto
            -88 1088 vlineto
            10 419 rlineto
            -81 hlineto
            -50 -273 -60 -24 -275 -12 rrcurveto
            -218 -9 -7 587 rlineto
            219 hlineto
            70 25 -29 -172 32 hvcurveto
            77 hlineto
            -5 503 rlineto
            -78 hlineto
            -174 -32 -22 -26 -69 hhcurveto
            -218 hlineto
            -7 553 215 -9 229 -10 68 -39 53 -213 rlinecurve
            82 hlineto
            -979 271 rmoveto
            82 hlineto
            8 -673 rlineto
            -417 hlineto
            endchar
          </CharString>
          <CharString index="251">
            -55 vhcurveto
            171 vlineto
            -383 -47 0 -80 -2 callsubr
            -1075 vlineto
            -81 callgsubr
            549 -100 callgsubr
            349 vlineto
            -58 58 101 -45 112 hhcurveto
            266 209 216 325 hvcurveto
            -253 -21 rmoveto
            -250 -119 -148 -167 -100 -77 44 54 -30 vhcurveto
            580 vlineto
            69 37 79 41 96 hhcurveto
            170 111 -145 -245 hvcurveto
            endchar
          </CharString>
          <CharString index="252">
            1773 141 callsubr
            -19 -40 -25 -26 7 13 -40 vhcurveto
            -31 10 rlineto
            16 -44 -41 9 -48 hhcurveto
            -94 -78 -56 -117 hvcurveto
            99 hlineto
            43 26 19 40 26 26 -7 -13 39 vhcurveto
            31 -11 rlineto
            -15 44 41 -9 48 hhcurveto
            -419 -285 rmoveto
            25 callgsubr
            return
          </CharString>
          <CharString index="253">
            423 231 vlineto
            338 -629 rlineto
            315 82 hlineto
            -61 15 -47 36 -122 221 rrcurveto
            -183 341 178 47 118 130 -1 178 rlinecurve
            -270 -21 rmoveto
            -192 -127 -97 -233 -7 vhcurveto
            -136 -4 0 614 114 -4 rlineto
            257 -9 125 -108 -193 vvcurveto
            return
          </CharString>
          <CharString index="254">
            313 82 hlineto
            -72 17 -50 39 -84 143 rrcurveto
            -226 373 71 65 180 164 48 24 109 15 rlinecurve
            88 -466 -88 vlineto
            135 -16 14 -27 -98 -100 -174 -180 rcurveline
            -136 893 hlineto
            -59 callsubr
            -88 callsubr
            323 139 vlineto
            return
          </CharString>
          <CharString index="255">
            1941 rmoveto
            -72 -66 -24 -24 -37 hvcurveto
            -65 vlineto
            14 27 49 12 48 hhcurveto
            64 36 -21 -34 -33 -35 78 callgsubr
            -94 42 -102 vhcurveto
            -536 -453 rmoveto
            25 callgsubr
            return
          </CharString>
          <CharString index="256">
            88 vlineto
            -55 -62 -101 -35 -96 hhcurveto
            -229 -156 160 258 236 134 138 173 59 46 -9 -19 37 hvcurveto
            -42 -19 -28 -45 -51 vvcurveto
            -72 55 -55 73 73 57 55 80 137 -117 116 -244 -283 -248 -200 -336 return
          </CharString>
          <CharString index="257">
            1829 rmoveto
            591 -78 0 77 -591 133 rlineto
            1 -473 rmoveto
            25 callgsubr
            return
          </CharString>
          <CharString index="258">
            -18 -40 -25 -26 7 12 -40 vhcurveto
            -31 11 rlineto
            15 -44 -41 9 -48 hhcurveto
            -94 -78 -55 -118 hvcurveto
            99 hlineto
            43 26 19 40 26 26 -96 callgsubr
            41 -10 48 hhcurveto
            endchar
          </CharString>
          <CharString index="259">
            1395 1269 1050 rmoveto
            243 -193 151 -383 vhcurveto
            -627 -86 callsubr
            -106 callsubr
            -72 callsubr
            146 callsubr
            return
          </CharString>
          <CharString index="260">
            -29 22 rlineto
            35 -47 -42 25 -58 hhcurveto
            -94 -78 -74 -189 hvcurveto
            93 hlineto
            88 3 20 31 39 hhcurveto
            26 24 -13 -21 28 hvcurveto
            29 -22 rlineto
            -35 47 42 -25 58 hhcurveto
            endchar
          </CharString>
          <CharString index="261">
            1357 rmoveto
            -128 126 -90 161 161 126 90 128 127 -126 91 -161 -161 -126 -91 -127 vhcurveto
            174 hmoveto
            74 return
          </CharString>
          <CharString index="262">
            1275 vlineto
            -389 -47 0 -78 79 -20 rlineto
            56 -14 9 -15 -55 vvcurveto
            -332 vlineto
            59 -58 -100 44 -112 hhcurveto
            -266 -209 -216 -325 hvcurveto
            return
          </CharString>
          <CharString index="263">
            -292 2 -150 -144 -244 hhcurveto
            -227 -172 143 273 hvcurveto
            680 35 callsubr
            -598 -88 vlineto
            143 -15 19 -17 -86 vvcurveto
            return
          </CharString>
          <CharString index="264">
            -693 rlineto
            340 82 hlineto
            -79 22 -49 50 -134 212 rrcurveto
            -319 508 225 250 155 172 49 38 133 22 rlinecurve
            88 return
          </CharString>
          <CharString index="265">
            -967 -726 -39 callgsubr
            99 callgsubr
            1178 -735 rmoveto
            128 callsubr
            -182 -194 -71 callgsubr
            return
          </CharString>
          <CharString index="266">
            rmoveto
            443 -346 257 -465 vhcurveto
            -626 -86 callsubr
            -106 callsubr
            634 vlineto
            430 373 289 455 hvcurveto
            return
          </CharString>
          <CharString index="267">
            hhcurveto
            72 46 -33 -50 -54 -49 -46 -104 -72 hvcurveto
            108 hlineto
            173 74 62 63 85 vvcurveto
            95 -85 66 -131 vhcurveto
            return
          </CharString>
          <CharString index="268">
            34 73 47 104 hhcurveto
            134 80 -47 callgsubr
            503 -98 callgsubr
            204 callsubr
            endchar
          </CharString>
          <CharString index="269">
            2 -17 3 -15 hvcurveto
            -68 callgsubr
            91 vlineto
            3 15 2 17 17 vvcurveto
            133 -105 128 -182 vhcurveto
            return
          </CharString>
          <CharString index="270">
            1434 503 206 rmoveto
            487 167 vlineto
            431 157 callsubr
            221 callsubr
            return
          </CharString>
          <CharString index="271">
            325 rlineto
            -82 hlineto
            -41 -186 -54 -27 -129 -4 rrcurveto
            -266 -9 564 832 rlineto
            79 vlineto
            return
          </CharString>
          <CharString index="272">
            rmoveto
            96 75 56 117 hvcurveto
            -98 hlineto
            -43 -27 -18 -39 -26 -26 7 12 -39 vhcurveto
            -31 11 rlineto
            15 -44 return
          </CharString>
          <CharString index="273">
            1903 rmoveto
            -98 -73 -38 -39 -38 hvcurveto
            -67 vlineto
            19 27 49 17 55 hhcurveto
            66 39 -28 -43 -46 return
          </CharString>
          <CharString index="274">
            1551 rmoveto
            -113 -81 -45 -45 -44 hvcurveto
            -80 vlineto
            22 30 103 callgsubr
            108 hlineto
            return
          </CharString>
          <CharString index="275">
            100 hlineto
            92 3 20 31 40 hhcurveto
            28 23 -14 -21 29 hvcurveto
            30 -23 rlineto
            -37 50 42 -25 61 hhcurveto
            return
          </CharString>
          <CharString index="276">
            -28 22 rlineto
            35 -48 -41 25 -59 hhcurveto
            -93 -79 -74 -189 hvcurveto
            93 hlineto
            88 3 20 31 39 hhcurveto
            return
          </CharString>
          <CharString index="277">
            -50 -25 -22 -39 -25 -26 7 16 -38 67 callsubr
            25 20 39 71 callsubr
            endchar
          </CharString>
          <CharString index="278">
            1829 rmoveto
            132 vlineto
            -591 -133 rlineto
            -77 vlineto
            -263 vmoveto
            25 callgsubr
            return
          </CharString>
          <CharString index="279">
            -308 221 -215 302 hvcurveto
            16 118 rmoveto
            -162 -118 -8 callgsubr
            return
          </CharString>
          <CharString index="280">
            78 57 -26 -58 -54 -53 -27 -67 -56 -57 16 23 -34 hvcurveto
            -86 vlineto
            -36 45 73 -23 91 hhcurveto
            return
          </CharString>
          <CharString index="281">
            1 340 rlineto
            292 105 -292 180 hlineto
            -244 -30 rlineto
            -150 -144 vlineto
            endchar
          </CharString>
          <CharString index="282">
            1467 rmoveto
            94 74 65 138 hvcurveto
            -96 hlineto
            -51 -26 -20 -39 -24 -26 7 15 return
          </CharString>
          <CharString index="283">
            -100 -10 hlineto
            -95 -77 -103 callgsubr
            -100 vlineto
            -3 -17 -2 -20 -20 vvcurveto
            -153 return
          </CharString>
          <CharString index="284">
            -72 callgsubr
            64 44 rlineto
            255 181 67 150 286 vvcurveto
            endchar
          </CharString>
          <CharString index="285">
            -523 rlineto
            -102 387 vlineto
            131 vmoveto
            -260 hlineto
            260 360 rlineto
            endchar
          </CharString>
          <CharString index="286">
            1117 vlineto
            210 -6 232 -7 75 -42 50 -214 rlinecurve
            81 hlineto
            endchar
          </CharString>
          <CharString index="287">
            65 1207 rmoveto
            144 -1029 hlineto
            -62 -17 -15 -127 -13 vhcurveto
            -88 return
          </CharString>
          <CharString index="288">
            -34 -77 -134 rrcurveto
            -249 -433 -259 433 -80 134 8 34 return
          </CharString>
          <CharString index="289">
            1228 rmoveto
            73 58 54 73 73 -58 54 -73 -73 -59 -54 -73 -73 return
          </CharString>
          <CharString index="290">
            -217 77 -178 121 -128 vhcurveto
            -128 -143 82 -74 128 143 rlineto
            -100 130 162 -55 169 hhcurveto
            454 293 333 421 217 -77 178 -122 129 hvcurveto
            128 142 -81 74 -129 -143 rlineto
            100 -129 -163 55 -168 -66 callgsubr
            142 114 -72 -115 80 vhcurveto
            -703 -781 rlineto
            -46 103 -24 124 131 vvcurveto
            900 -38 rmoveto
            -334 -128 -276 -309 -142 -114 72 115 -80 vhcurveto
            702 782 rlineto
            46 -104 25 -124 -131 vvcurveto
            endchar
          </CharString>
          <CharString index="291">
            rmoveto
            159 105 91 195 96 hvcurveto
            -205 47 71 -76 121 hhcurveto
            71 69 32 51 45 hvcurveto
            82 vlineto
            -10 -17 -26 -9 -27 hhcurveto
            -69 -53 64 283 -78 hvcurveto
            235 534 rlineto
            -247 hlineto
            -21 -100 -28 -113 -33 -111 rrcurveto
            224 -61 -95 123 -215 hhcurveto
            -259 -168 -222 -305 -344 168 -184 210 hvcurveto
            -123 542 rmoveto
            226 78 162 128 125 57 -114 -262 46 vhcurveto
            20 -119 rlineto
            -196 -74 -72 -87 -108 hhcurveto
            -128 -72 175 215 hvcurveto
            endchar
          </CharString>
          <CharString index="292">
            rmoveto
            -293 151 -163 199 167 119 118 158 43 vhcurveto
            -152 34 110 -124 190 hhcurveto
            223 1 154 190 323 vvcurveto
            309 -139 233 -162 -96 -59 -85 -115 34 vhcurveto
            166 -42 123 -181 -201 vvcurveto
            -167 -86 -109 -118 -132 -74 130 279 vhcurveto
            177 -225 -179 vlineto
            -300 -80 -107 -112 -114 -63 106 222 234 75 168 115 108 vhcurveto
            -54 59 rlineto
            -239 -101 -150 -230 -266 vvcurveto
            endchar
          </CharString>
          <CharString index="293">
            rmoveto
            307 229 219 313 141 -46 122 -80 90 hvcurveto
            91 99 -77 73 -92 -101 rlineto
            62 -86 -109 36 -122 hhcurveto
            -307 -229 -218 -314 -143 47 -122 81 -91 hvcurveto
            -86 -94 76 -72 89 96 rlineto
            -61 86 107 -35 121 hhcurveto
            -268 541 rmoveto
            248 98 149 170 83 72 -43 -76 51 vhcurveto
            -444 -484 rlineto
            -19 59 -11 69 78 vvcurveto
            283 -425 rmoveto
            -83 -71 42 74 -50 hvcurveto
            443 483 rlineto
            19 -58 10 -68 -76 vvcurveto
            -248 -99 -149 -169 vhcurveto
            endchar
          </CharString>
          <CharString index="294">
            rmoveto
            227 160 79 104 80 hvcurveto
            87 vlineto
            -59 -75 -125 -44 -164 hhcurveto
            -166 -96 55 99 100 100 62 203 hvcurveto
            102 hlineto
            -28 163 rlineto
            -40 hlineto
            -245 -95 44 100 92 85 59 160 81 63 -11 -20 47 hvcurveto
            -23 -21 -15 -30 -33 vvcurveto
            -59 46 -57 73 70 53 54 68 123 -135 101 -279 -305 -151 -125 -165 -155 136 -94 205 -6 vhcurveto
            -223 -6 -141 -89 -145 vvcurveto
            -167 161 -104 254 vhcurveto
            endchar
          </CharString>
          <CharString index="295">
            196 -92 163 -164 82 hvcurveto
            -11 43 47 -5 46 hhcurveto
            149 96 69 109 86 -57 92 -75 54 hvcurveto
            -87 hlineto
            20 -29 15 -57 -54 vvcurveto
            -115 -1 -73 -80 -126 -92 -68 23 -127 hhcurveto
            -290 -227 -224 -309 -312 205 -211 318 hvcurveto
            16 118 rmoveto
            -162 -118 163 258 256 97 143 167 163 117 -163 -258 -256 -97 -143 -167 hvcurveto
            return
          </CharString>
          <CharString index="296">
            139 -122 204 162 115 75 96 58 vhcurveto
            -160 vlineto
            388 46 0 79 -79 19 rlineto
            -60 14 -10 15 55 vvcurveto
            737 vlineto
            -1 14 14 -1 15 hhcurveto
            119 76 57 105 hvcurveto
            1 83 -58 93 -77 55 rrcurveto
            -87 hlineto
            19 -28 15 -56 -54 vvcurveto
            -127 -73 -71 -235 -22 vhcurveto
            -135 -12 0 -78 78 -19 rlineto
            60 -14 10 -14 -56 vvcurveto
            -566 vlineto
            -57 -34 -74 -47 -99 hhcurveto
            -140 -82 84 157 hvcurveto
            return
          </CharString>
          <CharString index="297">
            rmoveto
            -83 66 -63 96 149 111 112 241 126 vhcurveto
            463 888 57 109 26 21 134 16 rlinecurve
            88 -485 -88 vlineto
            182 -20 1 -10 -56 -117 rrcurveto
            -291 -608 -327 608 -62 113 7 14 182 20 rlinecurve
            88 -634 -88 vlineto
            134 -16 22 -21 61 -109 rrcurveto
            479 -856 -56 -117 -51 -79 -55 -45 rlinecurve
            78 -4 -61 61 -74 hhcurveto
            -77 -63 -60 -77 hvcurveto
            endchar
          </CharString>
          <CharString index="298">
            -449 330 -283 371 -19 vhcurveto
            -82 -75 -59 -95 -91 vvcurveto
            -125 96 -75 121 84 73 30 40 38 vhcurveto
            87 vlineto
            -14 -18 -30 -11 -35 hhcurveto
            -74 -56 71 103 58 17 58 26 40 hvcurveto
            419 29 267 321 402 vvcurveto
            465 -354 77 callsubr
            78 callsubr
            288 175 -299 -349 -334 -128 -276 -309 -288 -175 299 349 vhcurveto
            endchar
          </CharString>
          <CharString index="299">
            -126 21 hvcurveto
            105 22 71 69 89 vvcurveto
            109 -99 72 -148 -152 -105 -84 -120 -42 vhcurveto
            56 -28 rlineto
            74 36 69 35 80 hhcurveto
            86 51 -42 -68 -76 -78 -46 -172 -17 hvcurveto
            -70 vlineto
            3 20 28 3 23 hhcurveto
            115 81 -60 -104 -96 -75 -50 -89 -47 -37 11 18 -26 hvcurveto
            22 14 15 25 28 vvcurveto
            47 -35 34 -46 -47 -35 -36 -48 -99 109 -77 157 vhcurveto
            return
          </CharString>
          <CharString index="300">
            rmoveto
            322 -188 193 -224 -150 -132 -71 -104 -53 vhcurveto
            1 633 -48 callsubr
            -1262 96 vlineto
            100 121 rlineto
            -78 57 116 -65 139 hhcurveto
            269 213 215 325 hvcurveto
            -252 -20 rmoveto
            -250 -120 -148 -170 -100 -72 47 50 -32 vhcurveto
            580 vlineto
            70 38 78 40 97 hhcurveto
            169 112 -145 -244 hvcurveto
            return
          </CharString>
          <CharString index="301">
            250 hlineto
            150 -4 604 -1 vvcurveto
            83 34 75 48 98 hhcurveto
            149 68 -74 -247 -321 -6 -419 -10 -283 hvcurveto
            251 1102 hlineto
            296 -152 95 -193 -166 -115 -84 -108 -50 vhcurveto
            121 -12 -78 61 -109 hhcurveto
            -78 -74 -31 -35 -42 hvcurveto
            -86 vlineto
            5 12 19 4 23 hhcurveto
            92 38 -45 -120 -3 hvcurveto
            endchar
          </CharString>
          <CharString index="302">
            rmoveto
            704 vlineto
            287 -5 0 120 -287 -4 rlineto
            166 vlineto
            159 54 64 79 vhcurveto
            6 5 -1 5 hhcurveto
            -11 -16 -6 -20 -21 vvcurveto
            -62 45 -45 61 58 47 46 61 92 -87 72 -153 -197 -148 -133 -263 vhcurveto
            -96 vlineto
            -146 -52 rlineto
            -67 144 -712 3 callsubr
            -82 callsubr
            endchar
          </CharString>
          <CharString index="303">
            656 vlineto
            345 269 148 274 hvcurveto
            -350 641 rmoveto
            -158 -107 -100 -208 vhcurveto
            -168 538 hlineto
            138 -5 rlineto
            244 -8 101 -102 -165 vvcurveto
            67 -660 rmoveto
            -202 -162 -87 -250 -8 vhcurveto
            -138 -5 rlineto
            602 168 vlineto
            245 137 -103 -197 hvcurveto
            return
          </CharString>
          <CharString index="304">
            1833 rmoveto
            133 vlineto
            -591 -134 rlineto
            -77 vlineto
            336 -251 rmoveto
            123 77 44 68 67 -77 43 -123 hvcurveto
            -83 hlineto
            -120 -80 -43 -67 -68 80 -44 120 hvcurveto
            74 69 rmoveto
            -65 hlineto
            -41 -23 17 26 25 23 17 41 hvcurveto
            65 hlineto
            42 22 -17 -25 -26 -22 -17 -42 hvcurveto
            return
          </CharString>
          <CharString index="305">
            rmoveto
            290 139 234 callsubr
            -84 132 rrcurveto
            -224 342 70 71 187 189 41 29 106 15 rlinecurve
            88 -449 -88 vlineto
            130 -15 19 -40 -105 -112 -175 -190 rcurveline
            -138 272 hlineto
            -37 callsubr
            -20 callsubr
            -88 callsubr
            endchar
          </CharString>
          <CharString index="306">
            rmoveto
            289 229 215 312 313 -198 216 -311 -297 -229 -214 -313 -311 199 -218 318 hvcurveto
            9 118 rmoveto
            -164 -102 169 258 245 94 148 163 156 103 -168 -258 -247 -94 -147 -156 hvcurveto
            endchar
          </CharString>
          <CharString index="307">
            1794 rmoveto
            96 76 55 117 hvcurveto
            -99 hlineto
            -43 -26 -18 -40 -25 -26 6 13 -40 vhcurveto
            -31 10 rlineto
            15 -44 -41 10 -48 hhcurveto
            -94 -78 -55 -117 hvcurveto
            99 hlineto
            43 26 17 40 26 26 -6 -12 39 vhcurveto
            31 -11 rlineto
            -15 44 41 -9 48 hhcurveto
            -124 -272 14 callsubr
            return
          </CharString>
          <CharString index="308">
            424 -1163 215 0 426 1157 58 160 24 24 131 15 rlinecurve
            88 -481 -88 vlineto
            161 -20 19 -27 -51 -148 rrcurveto
            -322 -936 -326 937 -51 146 20 28 160 20 rlinecurve
            88 -618 -88 vlineto
            125 -15 30 -24 56 -154 rrcurveto
            return
          </CharString>
          <CharString index="309">
            62 17 15 127 13 vhcurveto
            88 -516 -88 vlineto
            113 -12 15 -14 -59 vvcurveto
            -736 -394 736 vlineto
            59 14 14 114 12 vhcurveto
            88 -501 -88 vlineto
            114 -12 14 -14 -59 vvcurveto
            -736 -394 736 vlineto
            59 15 14 113 12 vhcurveto
            88 -516 12 callsubr
            return
          </CharString>
          <CharString index="310">
            63 callgsubr
            -54 64 113 56 15 60 27 49 hvcurveto
            267 35 189 207 285 vvcurveto
            -105 callsubr
            -301 210 -211 291 -10 vhcurveto
            -81 -78 -57 -97 -96 vvcurveto
            -120 97 -78 111 vhcurveto
            -32 586 rmoveto
            -162 -118 -8 callgsubr
            endchar
          </CharString>
          <CharString index="311">
            555 vlineto
            25 -1 24 -4 20 vhcurveto
            50 38 71 39 100 hhcurveto
            138 82 -47 callgsubr
            517 87 callsubr
            521 vlineto
            213 -140 121 -209 -164 -121 -79 -95 -56 vhcurveto
            112 -46 -117 62 -157 hhcurveto
            -159 -118 -78 -93 -55 hvcurveto
            return
          </CharString>
          <CharString index="312">
            305 -759 150 0 305 758 55 135 19 14 99 15 rlinecurve
            88 -404 -88 vlineto
            134 -11 23 -23 -42 -113 rrcurveto
            -196 -522 -195 522 -42 113 23 23 133 11 rlinecurve
            88 -540 -88 vlineto
            99 -20 24 -21 50 -122 rrcurveto
            return
          </CharString>
          <CharString index="313">
            1683 rmoveto
            -73 -68 -26 -30 -38 hvcurveto
            -76 vlineto
            16 27 51 14 49 hhcurveto
            65 36 -24 -40 -39 -35 -23 -79 -54 callgsubr
            -95 48 -104 vhcurveto
            -512 -545 rmoveto
            -65 callsubr
            return
          </CharString>
          <CharString index="314">
            62 -77 -156 52 -184 hhcurveto
            -331 -205 -173 -240 -204 139 -138 252 -78 hvcurveto
            116 -37 rlineto
            180 -57 84 -84 -134 vvcurveto
            -139 -110 -98 -176 -196 -164 103 220 -50 vhcurveto
            -82 hlineto
            12 -320 rlineto
            return
          </CharString>
          <CharString index="315">
            -89 vlineto
            143 -15 19 -16 -86 vvcurveto
            -1129 -547 1129 vlineto
            86 19 16 143 15 vhcurveto
            89 -588 -89 vlineto
            142 -15 19 -16 -86 vvcurveto
            -1129 -546 1129 vlineto
            86 18 16 144 15 vhcurveto
            -54 callsubr
            -106 callsubr
            return
          </CharString>
          <CharString index="316">
            1271 518 rmoveto
            -7 -309 rlineto
            81 hlineto
            48 171 40 26 151 5 rrcurveto
            230 8 -558 -832 rlineto
            -79 848 vlineto
            7 164 callsubr
            -1851 -497 rmoveto
            250 120 148 -6 callgsubr
            endchar
          </CharString>
          <CharString index="317">
            rmoveto
            93 75 39 52 58 callgsubr
            -2 -8 -10 -1 -12 hhcurveto
            -32 -27 17 46 hvcurveto
            233 vlineto
            143 -97 62 -159 -157 -112 -65 -82 -47 36 -32 50 49 37 36 47 20 -8 18 -12 14 vhcurveto
            5 34 callgsubr
            return
          </CharString>
          <CharString index="318">
            196 127 103 132 76 -45 45 -66 -63 -43 -45 -59 -46 29 -39 41 -12 hvcurveto
            -35 -42 -62 -19 -73 hhcurveto
            -73 -62 19 35 -41 hvcurveto
            40 12 30 39 46 vvcurveto
            59 -43 45 -63 -66 -45 -45 -76 -132 128 -103 196 vhcurveto
            return
          </CharString>
          <CharString index="319">
            1426 1336 422 rmoveto
            220 -174 122 -251 23 vhcurveto
            198 24 149 107 176 vvcurveto
            216 -191 134 -345 vhcurveto
            -656 -86 callsubr
            -106 callsubr
            196 callsubr
            return
          </CharString>
          <CharString index="320">
            -101 hlineto
            -98 -3 -21 -34 -42 hhcurveto
            -29 -25 15 23 -30 hvcurveto
            -31 25 rlineto
            39 -51 -45 27 -63 hhcurveto
            -100 -85 -82 -210 hvcurveto
            101 hlineto
            99 3 21 34 42 hhcurveto
            29 25 -15 -23 30 hvcurveto
            31 -25 rlineto
            -39 51 45 -28 63 hhcurveto
            endchar
          </CharString>
          <CharString index="321">
            1982 rmoveto
            -76 -69 -23 -24 -39 hvcurveto
            -65 vlineto
            13 28 52 13 49 hhcurveto
            66 38 -21 -34 -33 -36 -20 -81 -18 hvcurveto
            79 -49 rlineto
            116 28 77 39 77 vvcurveto
            76 -98 41 -106 vhcurveto
            6 -460 14 callsubr
            return
          </CharString>
          <CharString index="322">
            0 -159 1795 rmoveto
            52 42 35 46 47 -42 36 -52 hvcurveto
            -12 hlineto
            -53 -42 -36 -47 -46 42 -35 53 hvcurveto
            341 hmoveto
            54 41 35 46 47 -41 36 -54 hvcurveto
            -11 hlineto
            -52 -42 -36 -47 -46 42 -35 52 hvcurveto
            return
          </CharString>
          <CharString index="323">
            -491 rmoveto
            85 84 24 38 38 hvcurveto
            87 vlineto
            -16 -21 -35 -12 -45 hhcurveto
            -58 -55 37 77 82 54 79 157 129 hvcurveto
            -97 -2 rlineto
            -232 -136 -76 -108 -106 vvcurveto
            -109 88 -64 113 vhcurveto
            endchar
          </CharString>
          <CharString index="324">
            1281 453 rmoveto
            279 -209 153 -356 vhcurveto
            -213 335 -90 callgsubr
            -623 0 callsubr
            -106 callsubr
            664 vlineto
            367 184 213 240 hvcurveto
            return
          </CharString>
          <CharString index="325">
            -222 304 290 200 211 273 vhcurveto
            -240 -43 rmoveto
            -204 -95 -116 -145 -159 -100 136 209 198 99 109 146 157 97 -133 -199 vhcurveto
            endchar
          </CharString>
          <CharString index="326">
            88 vlineto
            -55 -61 -102 -35 -97 hhcurveto
            -232 -152 150 243 -18 hvcurveto
            684 hlineto
            2 19 2 29 29 vvcurveto
            271 -158 168 -280 -293 -206 -217 -11 callgsubr
          </CharString>
          <CharString index="327">
            57 55 75 144 -140 89 -224 3 vhcurveto
            194 -80 -197 vlineto
            -263 -29 -213 -195 -312 vvcurveto
            -307 209 -195 267 -14 vhcurveto
            -195 vlineto
            -225 756 rmoveto
            return
          </CharString>
          <CharString index="328">
            -522 -88 vlineto
            162 -13 18 -38 -102 -127 -311 -381 rcurveline
            -164 440 hlineto
            86 18 17 144 15 vhcurveto
            -54 callsubr
            -106 callsubr
            -72 callsubr
            return
          </CharString>
          <CharString index="329">
            452 242 vlineto
            71 25 -28 -172 30 hvcurveto
            77 503 -77 hlineto
            -175 -35 -22 -26 -69 hhcurveto
            -242 564 hlineto
            238 -8 229 -7 69 -41 51 -216 rlinecurve
            81 hlineto
            endchar
          </CharString>
          <CharString index="330">
            rmoveto
            149 -435 vlineto
            184 136 rlineto
            165 122 69 86 102 vvcurveto
            125 -96 91 -151 -163 -97 -89 -124 -42 vhcurveto
            54 -26 rlineto
            71 33 61 45 83 hhcurveto
            84 55 return
          </CharString>
          <CharString index="331">
            hmoveto
            195 vlineto
            162 10 130 58 70 81 rrcurveto
            88 vlineto
            -58 -65 -111 -34 -104 hhcurveto
            -28 -28 2 5 -26 hvcurveto
            784 vlineto
            8 9 0 8 hhcurveto
            51 45 -6 -16 36 hvcurveto
            return
          </CharString>
          <CharString index="332">
            1357 rmoveto
            -128 125 -90 161 162 125 90 128 127 -125 91 -162 -161 -125 -91 -127 vhcurveto
            173 hmoveto
            74 50 50 63 64 return
          </CharString>
          <CharString index="333">
            264 1475 rmoveto
            -71 -48 -51 -72 -1 hvcurveto
            -50 8 -35 23 -123 vhcurveto
            52 -278 74 0 51 278 rlineto
            23 122 8 36 50 vvcurveto
            72 -48 51 -71 vhcurveto
            return
          </CharString>
          <CharString index="334">
            -74 66 44 rlineto
            271 188 73 163 266 vvcurveto
            return
          </CharString>
          <CharString index="335">
            -82 hlineto
            12 -317 94 -71 158 -42 156 -3 rlinecurve
            return
          </CharString>
          <CharString index="336">
            -82 hlineto
            10 -317 96 -71 158 -43 155 -2 rlinecurve
            return
          </CharString>
          <CharString index="337">
            vhcurveto
            -746 vlineto
            -138 58 -87 137 191 vvcurveto
            endchar
          </CharString>
          <CharString index="338">
            vhcurveto
            157 hmoveto
            67 43 43 58 58 44 -43 -67 -66 -44 return
          </CharString>
          <CharString index="339">
            rmoveto
            194 363 rlineto
            12 -231 vlineto
            -69 -375 rlineto
            return
          </CharString>
          <CharString index="340">
            rmoveto
            67 53 49 65 66 -53 49 -67 -23 callsubr
            return
          </CharString>
          <CharString index="341">
            vlineto
            289 -464 rlineto
            313 82 hlineto
            -74 17 -45 45 return
          </CharString>
          <CharString index="342">
            vlineto
            57 36 77 47 107 hhcurveto
            139 85 -82 -153 hvcurveto
            return
          </CharString>
        <CharString name=".notdef">
          2048 110 -494 rmoveto
          95 callgsubr
          190 2444 -190 hlineto
          409 -2444 rmoveto
          95 callgsubr
          95 callgsubr
          189 2444 -189 hlineto
          endchar
        </CharString>
        <CharString name=".null">
          0 endchar
        </CharString>
        <CharString name="A">
          1479 1275 281 -104 callsubr
        </CharString>
        <CharString name="AE">
          1999 1854 1444 143 callsubr
        </CharString>
        <CharString name="AEacute">
          1999 1258 -9 callsubr
          705 -122 143 callsubr
        </CharString>
        <CharString name="AEmacron">
          1999 995 -27 callsubr
          859 -314 143 callsubr
        </CharString>
        <CharString name="Aacute">
          1479 718 -58 callsubr
          -39 callsubr
          665 -1285 -104 callsubr
        </CharString>
        <CharString name="Abreve">
          1479 737 85 callsubr
          538 -1313 -104 callsubr
        </CharString>
        <CharString name="Abreveacute">
          1479 1033 1849 rmoveto
          133 vlineto
          -591 -133 rlineto
          -78 vlineto
          295 -249 14 callsubr
          538 -1241 -104 callsubr
        </CharString>
        <CharString name="Abrevecyrillic">
          1479 737 1594 rmoveto
          211 callsubr
          538 -1313 -104 callsubr
        </CharString>
        <CharString name="Abrevedotbelow">
          1479 737 85 callsubr
          538 -1313 rmoveto
          -15 callsubr
          59 callsubr
          -198 -783 -71 callsubr
          -18 callsubr
        </CharString>
        <CharString name="Abrevegrave">
          1479 441 72 callsubr
          296 -460 14 callsubr
          538 -1241 -104 callsubr
        </CharString>
        <CharString name="Abrevehookabove">
          1479 731 214 callsubr
          538 -1241 -104 callsubr
        </CharString>
        <CharString name="Abrevetilde">
          1479 861 200 callsubr
          538 -1241 -104 callsubr
        </CharString>
        <CharString name="Acaron">
          1479 943 -79 callsubr
          25 callsubr
          226 -1574 -104 callsubr
        </CharString>
        <CharString name="Acircumflex">
          1479 554 -76 callsubr
          39 callsubr
          827 -1285 -104 callsubr
        </CharString>
        <CharString name="Acircumflexacute">
          1479 1033 171 callsubr
          833 -1285 -104 callsubr
        </CharString>
        <CharString name="Acircumflexdotbelow">
          1479 554 -76 callsubr
          39 callsubr
          827 -1285 rmoveto
          -15 callsubr
          59 callsubr
          -198 -783 -71 callsubr
          -18 callsubr
        </CharString>
        <CharString name="Acircumflexgrave">
          1479 441 150 callsubr
          833 -1285 -104 callsubr
        </CharString>
        <CharString name="Acircumflexhookabove">
          1479 978 148 callsubr
          833 -1285 -104 callsubr
        </CharString>
        <CharString name="Acircumflextilde">
          1479 861 145 callsubr
          833 -1285 -104 callsubr
        </CharString>
        <CharString name="Acyrillic">
          1479 1275 281 -104 callsubr
        </CharString>
        <CharString name="Adblgrave">
          1479 534 124 callsubr
          42 callgsubr
          305 -1285 -104 callsubr
        </CharString>
        <CharString name="Adieresis">
          1479 560 -68 callsubr
          -67 callsubr
          34 callsubr
          125 callsubr
          360 -1317 -104 callsubr
        </CharString>
        <CharString name="Adieresismacron">
          1479 441 -107 callgsubr
          137 -379 rmoveto
          52 42 35 47 46 -42 36 -52 hvcurveto
          -12 hlineto
          -53 -42 -36 32 callsubr
          27 callgsubr
          379 -1268 -104 callsubr
        </CharString>
        <CharString name="Adotaccent">
          1479 737 -83 callsubr
          -23 callsubr
          538 -1316 -104 callsubr
        </CharString>
        <CharString name="Adotbelow">
          1479 1275 281 rmoveto
          -15 callsubr
          59 callsubr
          -198 -783 -71 callsubr
          -18 callsubr
        </CharString>
        <CharString name="Adotmacron">
          1479 441 1801 rmoveto
          591 103 -591 hlineto
          54 callgsubr
          538 -1259 -104 callsubr
        </CharString>
        <CharString name="Agrave">
          1479 777 -77 callgsubr
          814 -1565 -104 callsubr
        </CharString>
        <CharString name="Ahookabove">
          1479 762 -65 callgsubr
          513 -1622 -104 callsubr
        </CharString>
        <CharString name="Ainvertedbreve">
          1479 737 -53 callgsubr
          162 callsubr
          538 -1623 -104 callsubr
        </CharString>
        <CharString name="Alphagreek">
          1479 1275 281 -104 callsubr
        </CharString>
        <CharString name="Alphatonosgreek">
          1479 1275 281 rmoveto
          -15 callsubr
          618 88 vlineto
          -126 15 -28 24 -58 154 rrcurveto
          -1013 788 -59 callgsubr
          298 -474 rmoveto
          216 623 218 -623 rlineto
          endchar
        </CharString>
        <CharString name="Amacron">
          1479 455 137 callsubr
          820 -1477 -104 callsubr
        </CharString>
        <CharString name="Aogonek">
          1479 1209 -491 rmoveto
          84 74 30 40 36 hvcurveto
          87 vlineto
          -14 -17 -30 -11 -35 hhcurveto
          -74 -56 74 107 68 21 68 32 42 hvcurveto
          243 88 hlineto
          -126 15 -28 24 -58 154 rrcurveto
          -15 callsubr
          282 vlineto
          -91 -80 -68 -107 -104 vvcurveto
          -125 96 -75 121 vhcurveto
          -755 1086 rmoveto
          216 623 218 -623 rlineto
          endchar
        </CharString>
        <CharString name="Aring">
          1479 478 1759 -3 callgsubr
          -83 -116 231 callsubr
          -44 -58 -58 -43 44 66 vhcurveto
          640 -1478 -104 callsubr
        </CharString>
        <CharString name="Aringacute">
          1479 1033 197 callsubr
          506 -1292 -104 callsubr
        </CharString>
        <CharString name="Aringbelow">
          1479 1275 281 rmoveto
          -15 callsubr
          59 callsubr
          -484 -897 -31 callgsubr
          50 -41 -63 -63 -50 -41 -64 -63 -50 42 62 vhcurveto
          endchar
        </CharString>
        <CharString name="Atilde">
          1479 861 81 callsubr
          -100 hlineto
          -91 -3 0 callgsubr
          168 callsubr
          414 -1294 -104 callsubr
        </CharString>
        <CharString name="B">
          1426 1336 422 107 callsubr
        </CharString>
        <CharString name="Bdotaccent">
          1426 722 -83 callsubr
          -66 -53 -49 -66 -65 52 -49 67 hvcurveto
          614 -1175 107 callsubr
        </CharString>
        <CharString name="Bdotbelow">
          212 callsubr
          -330 -591 -73 callsubr
        </CharString>
        <CharString name="Becyrillic">
          1360 1280 422 rmoveto
          243 -191 166 -385 vhcurveto
          -202 510 hlineto
          236 -7 229 -7 69 -41 51 -213 rlinecurve
          81 hlineto
          -11 371 rlineto
          -1091 -86 callsubr
          -106 callsubr
          639 vlineto
          361 214 171 251 hvcurveto
          -282 -6 rmoveto
          -199 -127 -101 -254 -9 vhcurveto
          -115 -2 0 617 115 -4 rlineto
          251 -8 130 -106 -188 vvcurveto
          endchar
        </CharString>
        <CharString name="Betagreek">
          1426 1336 422 107 callsubr
        </CharString>
        <CharString name="Blinebelow">
          212 callsubr
          -621 -771 -40 callsubr
        </CharString>
        <CharString name="C">
          1459 103 721 -12 callsubr
          -33 callsubr
        </CharString>
        <CharString name="Cacute">
          1459 826 -60 callsubr
          -615 -845 -12 callsubr
          -33 callsubr
        </CharString>
        <CharString name="Ccaron">
          1459 1051 -79 callsubr
          -31 callsubr
          -1054 -1134 -12 callsubr
          -33 callsubr
        </CharString>
        <CharString name="Ccedilla">
          1459 103 721 rmoveto
          -447 319 -278 387 -25 vhcurveto
          -91 -117 36 callsubr
          73 callgsubr
          46 73 -23 91 hhcurveto
          132 127 140 callsubr
          57 76 rlineto
          180 9 172 55 83 61 12 327 rcurveline
          -48 callgsubr
          -33 callsubr
        </CharString>
        <CharString name="Ccedillaacute">
          1459 826 -60 callsubr
          -615 -845 rmoveto
          -447 319 -278 387 -25 vhcurveto
          -91 -117 36 callsubr
          73 callgsubr
          46 73 -23 91 hhcurveto
          132 127 140 callsubr
          57 76 rlineto
          180 9 172 55 83 61 12 327 rcurveline
          -48 callgsubr
          -33 callsubr
        </CharString>
        <CharString name="Ccircumflex">
          1459 662 -89 callgsubr
          94 callgsubr
          -215 -290 rlineto
          -452 -845 -12 callsubr
          -33 callsubr
        </CharString>
        <CharString name="Cdotaccent">
          1459 845 -83 callsubr
          -1 callsubr
          -742 -876 -12 callsubr
          -33 callsubr
        </CharString>
        <CharString name="Checyrillic">
          1625 1387 211 rmoveto
          1022 vlineto
          89 17 19 155 129 callsubr
          -511 vlineto
          -28 -82 -108 -15 -113 hhcurveto
          -240 -105 117 244 hvcurveto
          193 vlineto
          86 16 17 147 15 vhcurveto
          88 -589 -88 vlineto
          146 -15 16 -17 -86 vvcurveto
          -196 vlineto
          -330 202 -157 337 140 140 28 35 93 vhcurveto
          -393 vlineto
          -97 -22 -24 -167 -16 vhcurveto
          -88 625 88 vlineto
          -155 15 -17 19 89 vvcurveto
          endchar
        </CharString>
        <CharString name="Chigreek">
          1427 281 287 49 callsubr
        </CharString>
        <CharString name="D">
          1593 29 callsubr
          endchar
        </CharString>
        <CharString name="Dbar">
          1593 66 687 rmoveto
          172 -476 hlineto
          -89 -17 -19 -155 -15 vhcurveto
          -88 634 vlineto
          430 373 289 455 443 -346 257 -465 hvcurveto
          -626 -86 callsubr
          -440 -172 vlineto
          1146 -67 130 callsubr
          rlineto
          586 319 106 -319 550 vlineto
          97 callgsubr
          endchar
        </CharString>
        <CharString name="Dcaron">
          1593 963 -79 callsubr
          -31 callsubr
          434 -1111 109 callsubr
          endchar
        </CharString>
        <CharString name="Dcircumflexbelow">
          1593 29 callsubr
          -667 -1197 18 callsubr
        </CharString>
        <CharString name="Dcommaaccent">
          1593 29 callsubr
          -486 -1217 -63 callsubr
          112 callsubr
        </CharString>
        <CharString name="Ddotaccent">
          1593 757 -83 callsubr
          -1 callsubr
          746 -853 109 callsubr
          endchar
        </CharString>
        <CharString name="Ddotbelow">
          1593 29 callsubr
          -469 -914 rmoveto
          -67 -52 -48 -66 -65 52 -51 callgsubr
        </CharString>
        <CharString name="Decyrillic">
          1556 1488 109 rmoveto
          -200 1111 hlineto
          97 22 23 164 16 vhcurveto
          88 -1282 -88 vlineto
          169 -19 25 -14 -6 -132 rrcurveto
          -13 -332 -16 -365 -46 -240 -118 -145 rlinecurve
          -153 hlineto
          -8 -411 rlineto
          96 hlineto
          269 59 103 33 248 hhcurveto
          464 hlineto
          263 86 -53 -249 55 hvcurveto
          96 hlineto
          -472 411 rmoveto
          -675 hlineto
          93 147 45 221 15 382 19 476 rcurveline
          503 hlineto
          endchar
        </CharString>
        <CharString name="Deltagreek">
          1360 44 hmoveto
          1272 132 hlineto
          -529 1312 -214 0 -529 -1310 rlineto
          161 50 rmoveto
          405 1055 406 -1055 rlineto
          endchar
        </CharString>
        <CharString name="Djecyrillic">
          1749 -47 callsubr
          -34 callgsubr
          432 vlineto
          32 57 88 21 93 hhcurveto
          215 131 -127 -270 -271 -110 -205 -190 -142 hvcurveto
          43 -71 rlineto
          317 152 205 252 320 vvcurveto
          322 -203 176 -305 -145 -124 -39 -40 -72 vhcurveto
          587 84 callgsubr
        </CharString>
        <CharString name="Dlinebelow">
          1593 29 callsubr
          -760 -1094 1 callsubr
        </CharString>
        <CharString name="Dzecyrillic">
          1230 593 -31 104 callsubr
          endchar
        </CharString>
        <CharString name="Dzhecyrillic">
          1683 1445 1233 rmoveto
          89 18 19 154 15 vhcurveto
          88 -598 -88 vlineto
          143 -15 19 -17 -86 vvcurveto
          -1129 -678 1129 8 callsubr
          88 -599 0 callsubr
          -106 callsubr
          569 vlineto
          94 22 -20 -282 43 hvcurveto
          96 hlineto
          282 43 21 20 94 hhcurveto
          569 88 hlineto
          -154 15 -18 19 89 vvcurveto
          endchar
        </CharString>
        <CharString name="E">
          1325 1188 1444 -96 callsubr
        </CharString>
        <CharString name="Eacute">
          1325 656 -58 callsubr
          -39 callsubr
          640 -122 -96 callsubr
        </CharString>
        <CharString name="Ebreve">
          1325 675 85 callsubr
          513 -150 -96 callsubr
        </CharString>
        <CharString name="Ecaron">
          1325 881 -79 callsubr
          25 callsubr
          201 -411 -96 callsubr
        </CharString>
        <CharString name="Ecedilla">
          1325 655 -491 rmoveto
          132 43 callsubr
          -103 68 -128 3 hvcurveto
          78 105 473 0 -87 callsubr
          -34 callsubr
          -11 373 rlineto
          -45 callsubr
          584 -74 callgsubr
          46 callsubr
          -60 callgsubr
        </CharString>
        <CharString name="Ecedillabreve">
          1325 675 85 callsubr
          -20 -2085 rmoveto
          132 43 callsubr
          -103 68 -128 3 hvcurveto
          78 105 473 0 -87 callsubr
          -34 callsubr
          -11 373 rlineto
          -45 callsubr
          584 -74 callgsubr
          46 callsubr
          -60 callgsubr
        </CharString>
        <CharString name="Ecircumflex">
          1325 492 -76 callsubr
          39 callsubr
          802 -122 -96 callsubr
        </CharString>
        <CharString name="Ecircumflexacute">
          1325 971 171 callsubr
          808 -122 -96 callsubr
        </CharString>
        <CharString name="Ecircumflexbelow">
          1325 1188 1444 rmoveto
          -45 callsubr
          1167 vlineto
          -87 callsubr
          -34 callsubr
          -709 -1542 17 callsubr
        </CharString>
        <CharString name="Ecircumflexdotbelow">
          1325 492 -76 callsubr
          39 callsubr
          802 -122 rmoveto
          -45 callsubr
          1167 vlineto
          -87 callsubr
          -34 callsubr
          -510 -1259 -73 callsubr
        </CharString>
        <CharString name="Ecircumflexgrave">
          1325 379 150 callsubr
          808 -122 -96 callsubr
        </CharString>
        <CharString name="Ecircumflexhookabove">
          1325 916 148 callsubr
          808 -122 -96 callsubr
        </CharString>
        <CharString name="Ecircumflextilde">
          1325 799 145 callsubr
          808 -122 -96 callsubr
        </CharString>
        <CharString name="Ecyrillic">
          1488 103 721 -12 callsubr
          -274 -197 241 349 -21 hvcurveto
          668 -5 0 120 -669 -5 rlineto
          333 15 176 225 302 hhcurveto
          -24 callgsubr
        </CharString>
        <CharString name="Edblgrave">
          1325 472 124 callsubr
          42 callgsubr
          280 -122 -96 callsubr
        </CharString>
        <CharString name="Edieresis">
          1325 498 -68 callsubr
          -67 callsubr
          34 callsubr
          125 callsubr
          335 -154 -96 callsubr
        </CharString>
        <CharString name="Edotaccent">
          1325 675 -83 callsubr
          -23 callsubr
          513 -153 -96 callsubr
        </CharString>
        <CharString name="Edotbelow">
          1325 1188 1444 rmoveto
          -45 callsubr
          1167 vlineto
          -87 callsubr
          -34 callsubr
          -510 -1259 -73 callsubr
        </CharString>
        <CharString name="Efcyrillic">
          1901 75 717 rmoveto
          -302 294 -182 456 -14 vhcurveto
          -26 vlineto
          -97 -21 -23 -165 -16 vhcurveto
          -88 622 88 vlineto
          -164 16 -21 23 97 vvcurveto
          26 vlineto
          456 14 294 182 305 vvcurveto
          294 -251 197 -499 14 vhcurveto
          26 vlineto
          97 21 23 164 16 vhcurveto
          88 -622 -88 vlineto
          165 -16 21 -23 -97 vvcurveto
          -26 vlineto
          -500 -14 -250 -197 -297 vvcurveto
          1469 7 rmoveto
          -206 -149 -169 -319 -17 vhcurveto
          781 vlineto
          340 -16 128 -169 -204 vvcurveto
          -1187 2 rmoveto
          202 131 169 337 16 vhcurveto
          -781 vlineto
          -324 16 -144 171 207 vvcurveto
          endchar
        </CharString>
        <CharString name="Egrave">
          1325 715 -77 callgsubr
          789 -402 -96 callsubr
        </CharString>
        <CharString name="Ehookabove">
          1325 700 -65 callgsubr
          488 -459 -96 callsubr
        </CharString>
        <CharString name="Einvertedbreve">
          1325 675 -53 callgsubr
          162 callsubr
          513 -460 -96 callsubr
        </CharString>
        <CharString name="Elcyrillic">
          1546 13 callgsubr
          494 -1124 hlineto
          -90 -20 -18 -151 -15 vhcurveto
          -88 607 88 vlineto
          -152 15 -19 18 90 vvcurveto
          1022 vlineto
          90 19 18 152 15 vhcurveto
          88 -1259 -29 callgsubr
          endchar
        </CharString>
        <CharString name="Emacron">
          1325 393 137 callsubr
          795 -314 -96 callsubr
        </CharString>
        <CharString name="Emacronacute">
          1325 971 1849 rmoveto
          133 vlineto
          -591 -133 rlineto
          -78 vlineto
          -1 -192 rmoveto
          591 105 -591 hlineto
          809 -240 -96 callsubr
        </CharString>
        <CharString name="Emacrongrave">
          1325 379 85 callgsubr
          809 -240 -96 callsubr
        </CharString>
        <CharString name="Emcyrillic">
          1910 541 1444 51 callsubr
        </CharString>
        <CharString name="Encyrillic">
          -6 callsubr
          -61 callsubr
          -72 callsubr
          endchar
        </CharString>
        <CharString name="Eogonek">
          1325 1052 -491 rmoveto
          85 73 30 40 37 hvcurveto
          87 vlineto
          -14 -17 -30 -11 -34 hhcurveto
          -75 -56 74 107 68 21 68 33 42 hvcurveto
          144 hlineto
          -87 callsubr
          -34 callsubr
          -11 373 rlineto
          -45 callsubr
          929 vlineto
          -91 -80 -68 -107 -104 vvcurveto
          -125 96 -75 120 vhcurveto
          endchar
        </CharString>
        <CharString name="Epsilongreek">
          1325 1188 1444 -96 callsubr
        </CharString>
        <CharString name="Epsilontonosgreek">
          1644 1507 1444 rmoveto
          -45 callsubr
          1167 vlineto
          -87 callsubr
          -53 -273 -61 -27 -278 -9 -271 -9 rcurveline
          587 269 vlineto
          71 60 callgsubr
          -68 hhcurveto
          -269 553 hlineto
          268 -9 228 -7 69 -42 50 -214 rlinecurve
          82 hlineto
          -1412 -2 -59 callgsubr
          endchar
        </CharString>
        <CharString name="Ercyrillic">
          1375 1284 1011 53 callsubr
        </CharString>
        <CharString name="Ereversedcyrillic">
          1491 131 95 rmoveto
          -66 94 206 -60 196 hhcurveto
          413 349 280 490 471 -320 265 -442 -215 -182 -50 -64 -91 hvcurveto
          -12 -319 rlineto
          82 hlineto
          231 57 138 78 198 hhcurveto
          288 183 -216 -342 23 hvcurveto
          -667 5 0 -120 668 4 rlineto
          -356 -13 -207 -233 -275 hhcurveto
          -198 -144 70 250 -57 hvcurveto
          -82 hlineto
          endchar
        </CharString>
        <CharString name="Escyrillic">
          1459 103 721 -12 callsubr
          -33 callsubr
        </CharString>
        <CharString name="Etagreek">
          -6 callsubr
          -61 callsubr
          -72 callsubr
          endchar
        </CharString>
        <CharString name="Etatonosgreek">
          2013 821 206 rmoveto
          477 689 -477 -73 callgsubr
          -20 18 90 vvcurveto
          1022 vlineto
          90 20 18 152 129 callsubr
          -446 -689 445 vlineto
          86 19 17 144 15 vhcurveto
          -54 callsubr
          -106 callsubr
          599 88 vlineto
          -144 15 -19 17 86 vvcurveto
          -715 863 -59 callgsubr
          endchar
        </CharString>
        <CharString name="Etilde">
          1325 799 81 callsubr
          -100 hlineto
          -91 -3 0 callgsubr
          168 callsubr
          389 -131 -96 callsubr
        </CharString>
        <CharString name="Etildebelow">
          1325 1188 1444 rmoveto
          -45 callsubr
          1167 vlineto
          -87 callsubr
          -34 callsubr
          -392 -1503 66 callsubr
          169 callsubr
          59 callgsubr
        </CharString>
        <CharString name="F">
          1225 1161 1444 rmoveto
          -1095 -86 callsubr
          -106 callsubr
          -26 callsubr
          222 callsubr
        </CharString>
        <CharString name="Fdotaccent">
          1225 675 4 callsubr
          486 -153 rmoveto
          -1095 -86 callsubr
          -106 callsubr
          -26 callsubr
          222 callsubr
        </CharString>
        <CharString name="G">
          1584 103 721 -16 callsubr
        </CharString>
        <CharString name="Gacute">
          1584 819 -58 callsubr
          -39 callsubr
          -608 -845 -16 callsubr
        </CharString>
        <CharString name="Gammagreek">
          1211 1141 1444 rmoveto
          -1075 -86 callsubr
          -106 callsubr
          -26 callsubr
          179 callsubr
        </CharString>
        <CharString name="Gbreve">
          1584 838 85 callsubr
          -735 -873 -16 callsubr
        </CharString>
        <CharString name="Gcaron">
          1584 1044 -79 callsubr
          25 callsubr
          -1047 -1134 -16 callsubr
        </CharString>
        <CharString name="Gcircumflex">
          1584 655 -76 callsubr
          39 callsubr
          -446 -845 -16 callsubr
        </CharString>
        <CharString name="Gcommaaccent">
          1584 103 721 rmoveto
          -467 351 -285 411 208 201 55 77 115 vhcurveto
          387 vlineto
          88 15 15 155 15 vhcurveto
          87 -598 -87 vlineto
          174 -15 14 -14 -87 vvcurveto
          -334 vlineto
          -41 -59 -88 -22 -109 hhcurveto
          -292 -204 271 383 358 -33 callgsubr
          740 -1212 131 callsubr
          -65 45 callsubr
          -83 callgsubr
          -58 -51 132 callsubr
        </CharString>
        <CharString name="Gdotaccent">
          1584 838 -83 callsubr
          -23 callsubr
          -735 -876 -16 callsubr
        </CharString>
        <CharString name="Geacutecyrillic">
          1211 615 -9 callsubr
          635 -122 rmoveto
          -1075 -86 callsubr
          -106 callsubr
          -26 callsubr
          179 callsubr
        </CharString>
        <CharString name="Gecyrillic">
          1211 1141 1444 rmoveto
          -1075 -86 callsubr
          -106 callsubr
          -26 callsubr
          179 callsubr
        </CharString>
        <CharString name="Germandbls">
          1517 502 hmoveto
          1343 vlineto
          208 -8 rlineto
          281 -10 121 -110 -151 vvcurveto
          -131 -87 -86 -153 -22 vhcurveto
          -156 vlineto
          194 -49 126 -118 -181 vvcurveto
          -152 -86 -79 -115 -131 -95 102 179 -31 vhcurveto
          -82 -309 hlineto
          -47 62 129 -45 153 hhcurveto
          206 225 126 274 222 -124 164 -192 68 hvcurveto
          141 21 115 104 146 vvcurveto
          211 -174 138 -403 vhcurveto
          -724 -86 callsubr
          -106 callsubr
          vlineto
          endchar
        </CharString>
        <CharString name="Geupturncyrillic">
          1180 1113 1335 rmoveto
          8 411 rlineto
          -96 hlineto
          -282 -82 -34 -20 -170 hhcurveto
          -673 -86 callsubr
          -106 callsubr
          -26 callsubr
          1110 vlineto
          endchar
        </CharString>
        <CharString name="Gmacron">
          1584 556 137 callsubr
          -453 -1037 -16 callsubr
        </CharString>
        <CharString name="H">
          -6 callsubr
          -61 callsubr
          -72 callsubr
          endchar
        </CharString>
        <CharString name="Hacyrillic">
          1427 281 287 49 callsubr
        </CharString>
        <CharString name="Hardsigncyrillic">
          1611 1525 453 rmoveto
          279 -209 153 -356 vhcurveto
          -214 335 -90 callgsubr
          -868 vlineto
          -11 -371 rlineto
          81 hlineto
          41 223 62 34 244 8 rrcurveto
          -1117 vlineto
          -95 -20 -22 -164 -16 vhcurveto
          -88 677 vlineto
          366 185 213 240 hvcurveto
          -283 -11 rmoveto
          -205 -115 -121 -242 -8 vhcurveto
          -139 -3 rlineto
          671 125 vlineto
          232 139 -116 -218 hvcurveto
          endchar
        </CharString>
        <CharString name="Hbar">
          -6 callsubr
          819 171 104 -171 99 19 callgsubr
          -104 -688 103 8 callsubr
          -54 callsubr
          -99 -172 -104 172 -819 -92 callgsubr
          -72 callsubr
          586 vmoveto
          238 688 -238 vlineto
          endchar
        </CharString>
        <CharString name="Hbrevebelow">
          -6 callsubr
          -61 callsubr
          -72 callsubr
          346 -667 rmoveto
          189 -69 callgsubr
          -71 -70 -127 -126 -71 47 callgsubr
          188 vhcurveto
          endchar
        </CharString>
        <CharString name="Hcaron">
          1694 1056 -79 callsubr
          69 callgsubr
          -659 -1649 60 callsubr
          -61 callsubr
          -72 callsubr
          endchar
        </CharString>
        <CharString name="Hcedilla">
          -6 callsubr
          -61 callsubr
          257 64 callgsubr
          -56 -57 83 callsubr
          92 hhcurveto
          131 43 callsubr
          -102 -86 callgsubr
          231 88 hlineto
          -144 15 -18 17 86 vvcurveto
          endchar
        </CharString>
        <CharString name="Hcircumflex">
          1694 666 -76 callsubr
          7 callsubr
          -57 -1360 60 callsubr
          -61 callsubr
          -72 callsubr
          endchar
        </CharString>
        <CharString name="Hdieresis">
          1694 672 -68 callsubr
          49 65 66 -52 49 -65 -65 -52 -49 -66 -65 57 callgsubr
          -53 -49 -66 -65 52 -49 66 hvcurveto
          -525 -1392 60 callsubr
          -61 callsubr
          -72 callsubr
          endchar
        </CharString>
        <CharString name="Hdotaccent">
          1694 849 4 callsubr
          -346 -1391 60 callsubr
          -61 callsubr
          -72 callsubr
          endchar
        </CharString>
        <CharString name="Hdotbelow">
          -6 callsubr
          -61 callsubr
          -72 callsubr
          346 -394 -71 callsubr
          -18 callsubr
        </CharString>
        <CharString name="I">
          740 503 -19 callsubr
          -103 callsubr
          -99 callsubr
          -84 callsubr
        </CharString>
        <CharString name="IAcyrillic">
          1428 148 1021 rmoveto
          -201 140 -119 168 -38 vhcurveto
          -193 -310 -129 -206 -30 -40 -75 -25 rlinecurve
          -82 292 vlineto
          378 624 rlineto
          210 -418 hlineto
          -86 -15 -17 -146 -15 vhcurveto
          -88 598 88 vlineto
          -152 15 -20 19 89 vvcurveto
          1022 vlineto
          89 20 19 152 15 vhcurveto
          88 -671 vlineto
          -344 -183 -170 -253 hvcurveto
          272 21 rmoveto
          190 114 99 230 7 vhcurveto
          145 5 0 -618 -136 1 rlineto
          -209 1 -144 114 201 vvcurveto
          endchar
        </CharString>
        <CharString name="IJ">
          1481 503 -19 callsubr
          -103 callsubr
          -99 callsubr
          28 callsubr
          740 49 rmoveto
          973 96 callsubr
          -103 callsubr
          16 -19 -89 vvcurveto
          38 callsubr
          6 callsubr
          -4 callsubr
        </CharString>
        <CharString name="IJacute">
          1481 352 -9 callsubr
          848 hmoveto
          93 callgsubr
          -480 -1355 -85 callsubr
          -103 callsubr
          -99 callsubr
          28 callsubr
          740 49 rmoveto
          973 96 callsubr
          -103 callsubr
          16 -19 -89 vvcurveto
          38 callsubr
          6 callsubr
          -4 callsubr
        </CharString>
        <CharString name="IUcyrillic">
          2330 503 206 rmoveto
          477 249 vlineto
          -449 19 342 -265 372 hhcurveto
          451 290 327 427 1 hvcurveto
          472 1 -352 280 -383 hhcurveto
          -425 -283 -291 -392 -31 hvcurveto
          -251 445 hlineto
          86 18 17 144 15 vhcurveto
          -54 callsubr
          -106 callsubr
          -72 callsubr
          1000 -113 rmoveto
          -285 -174 292 356 340 127 270 305 285 175 -292 -356 -1 hvcurveto
          -340 -127 -270 -305 vhcurveto
          endchar
        </CharString>
        <CharString name="Iacute">
          740 352 -9 callsubr
          260 -1355 -85 callsubr
          -103 callsubr
          -99 callsubr
          -84 callsubr
        </CharString>
        <CharString name="Ibreve">
          740 370 1594 rmoveto
          183 104 98 callgsubr
          -69 -70 -122 4 callgsubr
          133 -1383 -85 callsubr
          -103 callsubr
          -99 callsubr
          -84 callsubr
        </CharString>
        <CharString name="Icaron">
          740 576 37 callgsubr
          -180 -1644 -85 callsubr
          -103 callsubr
          -99 callsubr
          -84 callsubr
        </CharString>
        <CharString name="Icircumflex">
          740 187 -76 callsubr
          7 callsubr
          422 -1355 -85 callsubr
          -103 callsubr
          -99 callsubr
          -84 callsubr
        </CharString>
        <CharString name="Icyrillic">
          740 503 -19 callsubr
          -103 callsubr
          -99 callsubr
          -84 callsubr
        </CharString>
        <CharString name="Idblgrave">
          740 167 124 callsubr
          207 290 rmoveto
          -207 -10 hlineto
          169 -280 rlineto
          110 hlineto
          -100 -1355 -85 callsubr
          -103 callsubr
          -99 callsubr
          -84 callsubr
        </CharString>
        <CharString name="Idieresis">
          740 193 -68 callsubr
          -67 callsubr
          -78 callsubr
          -43 callsubr
          34 callsubr
          -46 -1387 -85 callsubr
          -103 callsubr
          -99 callsubr
          -84 callsubr
        </CharString>
        <CharString name="Idieresisacute">
          740 666 1849 rmoveto
          133 vlineto
          -591 -133 rlineto
          -78 vlineto
          136 -222 rmoveto
          52 42 35 47 46 -42 36 -52 hvcurveto
          7 callgsubr
          -12 hlineto
          -52 -42 -36 -46 -47 42 -35 52 hvcurveto
          -26 -1338 -85 callsubr
          -103 callsubr
          -99 callsubr
          -84 callsubr
        </CharString>
        <CharString name="Idotaccent">
          740 370 4 callsubr
          133 -1386 -85 callsubr
          -103 callsubr
          -99 callsubr
          -84 callsubr
        </CharString>
        <CharString name="Idotbelow">
          740 503 -19 callsubr
          -103 callsubr
          -99 callsubr
          28 callsubr
          -133 -399 -73 callsubr
        </CharString>
        <CharString name="Iecyrillic">
          1325 1188 1444 -96 callsubr
        </CharString>
        <CharString name="Igrave">
          740 410 1566 rmoveto
          108 hlineto
          -152 290 rlineto
          -272 -10 hlineto
          409 -1635 -85 callsubr
          -103 callsubr
          -99 callsubr
          -84 callsubr
        </CharString>
        <CharString name="Ihookabove">
          740 396 1903 rmoveto
          -99 -72 -38 -39 -38 hvcurveto
          -67 vlineto
          19 27 49 17 55 hhcurveto
          65 40 -28 -43 -46 -45 -39 -92 -61 hvcurveto
          93 hlineto
          152 62 55 56 71 vvcurveto
          80 -74 56 -116 vhcurveto
          107 -1692 -85 callsubr
          -103 callsubr
          -99 callsubr
          -84 callsubr
        </CharString>
        <CharString name="Iicyrillic">
          1720 503 206 rmoveto
          30 vlineto
          715 809 rlineto
          -839 -73 callgsubr
          -19 18 90 vvcurveto
          1022 vlineto
          90 19 18 152 129 callsubr
          -30 vlineto
          -715 -809 rlineto
          838 8 callsubr
          -54 callsubr
          -106 callsubr
          -72 callsubr
          endchar
        </CharString>
        <CharString name="Iinvertedbreve">
          740 370 1904 rmoveto
          -183 -103 -43 callgsubr
          -68 callgsubr
          55 callgsubr
          133 -1693 -85 callsubr
          -103 callsubr
          -99 callsubr
          -84 callsubr
        </CharString>
        <CharString name="Iishortcyrillic">
          1720 861 1594 rmoveto
          196 127 103 132 76 -44 45 -67 -63 -43 -45 -59 -46 30 108 callgsubr
          -41 hvcurveto
          41 12 30 39 46 vvcurveto
          59 -43 45 -63 -67 -44 -45 -76 -132 128 -103 195 vhcurveto
          -358 -1388 rmoveto
          30 vlineto
          715 809 rlineto
          -839 -73 callgsubr
          -19 18 90 vvcurveto
          1022 vlineto
          90 19 18 152 129 callsubr
          -30 vlineto
          -715 -809 rlineto
          838 8 callsubr
          -54 callsubr
          -106 callsubr
          -72 callsubr
          endchar
        </CharString>
        <CharString name="Imacron">
          740 89 -27 callsubr
          414 -1547 -85 callsubr
          -103 callsubr
          -99 callsubr
          -84 callsubr
        </CharString>
        <CharString name="Iocyrillic">
          1325 498 -68 callsubr
          -67 callsubr
          34 callsubr
          125 callsubr
          335 -154 -96 callsubr
        </CharString>
        <CharString name="Iogonek">
          740 503 -19 callsubr
          -103 callsubr
          -99 callsubr
          273 vlineto
          -92 -80 -67 -107 -104 vvcurveto
          -125 95 -75 121 85 73 30 40 37 vhcurveto
          87 vlineto
          -14 -18 -30 -11 -34 hhcurveto
          -74 -57 74 107 68 21 68 33 42 hvcurveto
          242 88 hlineto
          -155 15 -16 19 89 vvcurveto
          endchar
        </CharString>
        <CharString name="Iotadieresisgreek">
          740 193 -68 callsubr
          -67 callsubr
          -78 callsubr
          -43 callsubr
          34 callsubr
          -46 -1387 -85 callsubr
          -103 callsubr
          -99 callsubr
          -84 callsubr
        </CharString>
        <CharString name="Iotagreek">
          740 503 -19 callsubr
          -103 callsubr
          -99 callsubr
          -84 callsubr
        </CharString>
        <CharString name="Iotatonosgreek">
          1059 821 211 rmoveto
          1022 96 callsubr
          -103 callsubr
          -99 callsubr
          608 88 vlineto
          -155 15 -17 19 89 vvcurveto
          -715 858 -59 callgsubr
          endchar
        </CharString>
        <CharString name="Itilde">
          740 494 81 callsubr
          -99 hlineto
          -91 -4 -20 -31 -40 47 callsubr
          -30 23 rlineto
          36 -50 -42 25 -60 hhcurveto
          -98 -81 -77 -197 hvcurveto
          99 hlineto
          92 3 20 31 40 hhcurveto
          28 105 callgsubr
          9 -1364 -85 callsubr
          -103 callsubr
          -99 callsubr
          -84 callsubr
        </CharString>
        <CharString name="Itildebelow">
          740 503 -19 callsubr
          -103 callsubr
          -99 callsubr
          28 callsubr
          -15 -643 66 callsubr
          169 callsubr
          59 callgsubr
        </CharString>
        <CharString name="J">
          740 503 260 rmoveto
          973 35 callsubr
          -608 0 callsubr
          38 callsubr
          6 callsubr
          -4 callsubr
        </CharString>
        <CharString name="Jacute">
          740 351 -9 callsubr
          261 -1306 rmoveto
          973 35 callsubr
          -608 0 callsubr
          38 callsubr
          6 callsubr
          -4 callsubr
        </CharString>
        <CharString name="Jcircumflex">
          740 186 -76 callsubr
          7 callsubr
          423 -1306 rmoveto
          973 35 callsubr
          -608 0 callsubr
          38 callsubr
          6 callsubr
          -4 callsubr
        </CharString>
        <CharString name="Jecyrillic">
          740 503 260 rmoveto
          973 35 callsubr
          -608 0 callsubr
          38 callsubr
          6 callsubr
          -4 callsubr
        </CharString>
        <CharString name="K">
          1434 503 206 21 callsubr
        </CharString>
        <CharString name="Kaacutecyrillic">
          1434 761 -58 callsubr
          -39 callsubr
          -150 -1360 21 callsubr
        </CharString>
        <CharString name="Kacute">
          1434 761 -58 callsubr
          -39 callsubr
          -150 -1360 21 callsubr
        </CharString>
        <CharString name="Kacyrillic">
          1434 503 206 21 callsubr
        </CharString>
        <CharString name="Kappagreek">
          1434 503 206 21 callsubr
        </CharString>
        <CharString name="Kcaron">
          1434 986 -79 callsubr
          25 callsubr
          -589 -1649 21 callsubr
        </CharString>
        <CharString name="Kcommaaccent">
          163 callsubr
          293 -697 131 callsubr
          -65 45 callsubr
          -83 callgsubr
          -59 -50 132 callsubr
        </CharString>
        <CharString name="Kdotbelow">
          163 callsubr
          310 -394 -71 callsubr
          -18 callsubr
        </CharString>
        <CharString name="Klinebelow">
          163 callsubr
          20 -574 -40 callsubr
        </CharString>
        <CharString name="L">
          23 callsubr
          endchar
        </CharString>
        <CharString name="Lacute">
          1222 355 -9 callsubr
          908 -1566 rmoveto
          -7 callsubr
          24 callsubr
          endchar
        </CharString>
        <CharString name="Lambdagreek">
          1467 1255 278 rmoveto
          -412 1166 -216 0 -423 -1189 -46 -130 -37 -25 -117 -12 rlinecurve
          -88 480 88 vlineto
          -166 18 -7 40 40 122 rrcurveto
          313 948 322 -961 43 -131 -48 -18 -134 -18 rlinecurve
          -88 618 88 vlineto
          -117 14 -38 21 -55 155 rrcurveto
          endchar
        </CharString>
        <CharString name="Lcaron">
          1222 968 91 callgsubr
          272 -1123 rmoveto
          -7 callsubr
          24 callsubr
          endchar
        </CharString>
        <CharString name="Lcircumflexbelow">
          23 callsubr
          353 -471 18 callsubr
        </CharString>
        <CharString name="Lcommaaccent">
          23 callsubr
          535 -491 -63 callsubr
          112 callsubr
        </CharString>
        <CharString name="Ldot">
          23 callsubr
          898 715 rmoveto
          78 62 57 78 77 -62 58 -78 -78 -62 -58 -77 -78 62 -57 78 hvcurveto
          endchar
        </CharString>
        <CharString name="Ldotbelow">
          23 callsubr
          24 callgsubr
        </CharString>
        <CharString name="Ldotbelowmacron">
          1222 92 -27 callsubr
          1062 -1758 rmoveto
          -7 callsubr
          24 callsubr
          24 callgsubr
        </CharString>
        <CharString name="Ljecyrillic">
          2106 13 callgsubr
          427 -1124 hlineto
          -90 -20 -18 -152 -15 vhcurveto
          -88 665 vlineto
          365 185 213 240 279 -209 153 -356 hvcurveto
          -214 335 hlineto
          97 21 23 166 16 vhcurveto
          88 -1207 -29 callgsubr
          1725 325 rmoveto
          -205 -115 -121 -241 -8 vhcurveto
          -140 -3 rlineto
          671 126 vlineto
          232 138 -116 -218 hvcurveto
          endchar
        </CharString>
        <CharString name="Llinebelow">
          23 callsubr
          260 -368 1 callsubr
        </CharString>
        <CharString name="Lslash">
          1222 66 597 rmoveto
          172 51 rlineto
          -437 -92 callgsubr
          1088 vlineto
          -7 callsubr
          rrcurveto
          -217 -8 0 626 358 107 0 112 -358 -106 rlineto
          384 65 callgsubr
          -472 vlineto
          -172 -51 rlineto
          endchar
        </CharString>
        <CharString name="M">
          1910 541 1444 51 callsubr
        </CharString>
        <CharString name="Macute">
          1910 935 -60 callsubr
          -286 -122 51 callsubr
        </CharString>
        <CharString name="Mdotaccent">
          1910 954 -83 callsubr
          -1 callsubr
          -413 -153 51 callsubr
        </CharString>
        <CharString name="Mdotbelow">
          1910 541 1444 rmoveto
          -473 -88 hlineto
          144 -16 22 -23 -3 -107 rrcurveto
          -24 -988 -3 -98 -15 -19 -143 -17 rlinecurve
          -88 463 88 vlineto
          -146 17 -17 20 102 vvcurveto
          1 996 471 -1223 141 0 83 241 368 983 21 -1018 2 -86 -18 -17 -146 -15 rlinecurve
          -88 595 88 vlineto
          -151 15 -18 18 -2 90 rrcurveto
          -23 1022 -2 90 22 18 152 15 rlinecurve
          88 vlineto
          -482 1 -391 -1134 rlineto
          -82 -499 rmoveto
          -67 -52 -48 -66 -65 52 -51 callgsubr
        </CharString>
        <CharString name="Mugreek">
          1910 541 1444 51 callsubr
        </CharString>
        <CharString name="N">
          1591 -25 callsubr
          -10 callsubr
          endchar
        </CharString>
        <CharString name="Nacute">
          1591 792 -60 callsubr
          -209 -122 -14 callsubr
          -10 callsubr
          endchar
        </CharString>
        <CharString name="Ncaron">
          1591 1017 -79 callsubr
          -31 callsubr
          -648 -411 -14 callsubr
          -10 callsubr
          endchar
        </CharString>
        <CharString name="Ncircumflexbelow">
          1591 -25 callsubr
          -10 callsubr
          -677 -719 18 callsubr
        </CharString>
        <CharString name="Ncommaaccent">
          1591 -25 callsubr
          -10 callsubr
          -496 -739 -63 callsubr
          112 callsubr
        </CharString>
        <CharString name="Ndotaccent">
          1591 811 -83 callsubr
          -1 callsubr
          -336 -153 -14 callsubr
          -10 callsubr
          endchar
        </CharString>
        <CharString name="Ndotbelow">
          1591 -25 callsubr
          -10 callsubr
          -479 -436 -73 callsubr
        </CharString>
        <CharString name="Ngrave">
          1591 851 1566 rmoveto
          108 hlineto
          -102 callgsubr
          -59 -402 -14 callsubr
          -10 callsubr
          endchar
        </CharString>
        <CharString name="Njecyrillic">
          2212 503 206 rmoveto
          517 580 -517 vlineto
          -86 -19 -17 -143 -15 vhcurveto
          -88 655 vlineto
          366 184 201 227 261 -208 143 -356 hvcurveto
          -214 388 -90 callgsubr
          -613 -89 vlineto
          143 -15 19 -17 -86 vvcurveto
          -405 -580 405 8 callsubr
          -54 callsubr
          -106 callsubr
          -72 callsubr
          1340 210 rmoveto
          -189 -114 -111 -241 -8 vhcurveto
          -140 -3 rlineto
          618 126 vlineto
          231 138 -107 -200 hvcurveto
          endchar
        </CharString>
        <CharString name="Nlinebelow">
          1591 -25 callsubr
          -10 callsubr
          -770 -616 1 callsubr
        </CharString>
        <CharString name="Ntilde">
          1591 934 73 callsubr
          -20 -31 -41 47 callsubr
          90 callsubr
          -95 callgsubr
          -42 callgsubr
          -459 -131 -14 callsubr
          -10 callsubr
          endchar
        </CharString>
        <CharString name="Nugreek">
          1591 -25 callsubr
          -10 callsubr
          endchar
        </CharString>
        <CharString name="O">
          9 callsubr
          69 callsubr
          -98 callsubr
        </CharString>
        <CharString name="OE">
          2129 103 712 rmoveto
          -401 299 -342 448 vhcurveto
          165 89 31 152 hhcurveto
          781 hlineto
          14 419 rlineto
          -81 hlineto
          -53 -273 -60 -27 -275 -9 -265 -9 rcurveline
          587 267 vlineto
          71 24 -29 -172 30 hvcurveto
          77 504 -77 hlineto
          -175 -35 -22 -26 -68 hhcurveto
          -267 553 hlineto
          263 -9 228 -7 68 -42 51 -213 rlinecurve
          81 hlineto
          -10 372 rlineto
          -740 hlineto
          -155 -70 31 -163 hhcurveto
          -464 -303 -327 -436 hvcurveto
          288 12 rmoveto
          351 186 279 319 59 54 -8 -18 43 vhcurveto
          -1214 vlineto
          -16 -48 -59 -8 -60 hhcurveto
          -312 -182 278 356 hvcurveto
          endchar
        </CharString>
        <CharString name="Oacute">
          1693 821 -60 callsubr
          -610 41 callsubr
          -98 callsubr
        </CharString>
        <CharString name="Obreve">
          1693 839 1594 rmoveto
          184 103 98 callgsubr
          -68 -70 -123 4 callgsubr
          -736 -873 -97 callsubr
          -98 callsubr
        </CharString>
        <CharString name="Ocaron">
          1693 1046 -79 callsubr
          -31 callsubr
          -1049 -1134 -97 callsubr
          -98 callsubr
        </CharString>
        <CharString name="Ocircumflex">
          1693 656 -76 callsubr
          7 callsubr
          -447 41 callsubr
          -98 callsubr
        </CharString>
        <CharString name="Ocircumflexacute">
          1693 1135 1829 rmoveto
          132 vlineto
          -590 -133 rlineto
          -77 vlineto
          -1 -263 rmoveto
          114 callsubr
        </CharString>
        <CharString name="Ocircumflexdotbelow">
          1693 656 -76 callsubr
          7 callsubr
          -447 41 callsubr
          465 -354 77 callsubr
          78 callsubr
          63 callsubr
          456 -929 -73 callsubr
        </CharString>
        <CharString name="Ocircumflexgrave">
          1693 544 1829 rmoveto
          590 -78 0 77 -590 133 rlineto
          -473 vmoveto
          114 callsubr
        </CharString>
        <CharString name="Ocircumflexhookabove">
          1693 1080 1941 rmoveto
          -71 -67 -24 -24 -37 hvcurveto
          -65 vlineto
          14 27 50 12 48 hhcurveto
          63 36 -21 -34 -33 -34 78 callgsubr
          -95 42 -102 vhcurveto
          -536 -453 rmoveto
          114 callsubr
        </CharString>
        <CharString name="Ocircumflextilde">
          1693 964 1773 rmoveto
          96 75 56 117 hvcurveto
          -98 hlineto
          -43 -27 -19 -39 -26 -26 7 13 -39 vhcurveto
          -31 10 rlineto
          16 -44 -42 9 -48 hhcurveto
          -94 -77 -56 -117 -94 callgsubr
          -7 -13 39 vhcurveto
          31 -11 rlineto
          -15 44 42 -9 48 hhcurveto
          -420 -285 rmoveto
          114 callsubr
        </CharString>
        <CharString name="Ocyrillic">
          9 callsubr
          69 callsubr
          -98 callsubr
        </CharString>
        <CharString name="Odblgrave">
          1693 636 124 callsubr
          207 70 callgsubr
          -970 41 callsubr
          -98 callsubr
        </CharString>
        <CharString name="Odieresis">
          1693 662 -68 callsubr
          -67 callsubr
          -78 callsubr
          -43 callsubr
          -65 -52 -50 -66 -64 51 -50 66 hvcurveto
          -915 -877 -97 callsubr
          -98 callsubr
        </CharString>
        <CharString name="Odieresismacron">
          67 callgsubr
          136 -379 rmoveto
          53 41 35 47 46 -41 36 -53 hvcurveto
          7 callgsubr
          -11 hlineto
          -53 -42 -36 -46 -47 42 -35 53 hvcurveto
          -896 -828 -97 callsubr
          -98 callsubr
        </CharString>
        <CharString name="Odotaccent">
          1693 839 4 callsubr
          -736 -876 -97 callsubr
          -98 callsubr
        </CharString>
        <CharString name="Odotaccentmacron">
          1693 544 1801 rmoveto
          590 103 -590 hlineto
          295 -364 rmoveto
          59 45 40 52 51 -45 39 -59 -57 -47 -39 -51 -52 46 -40 58 hvcurveto
          -736 -819 -97 callsubr
          -98 callsubr
        </CharString>
        <CharString name="Odotbelow">
          9 callsubr
          69 callsubr
          465 -354 77 callsubr
          78 callsubr
          63 callsubr
          456 -929 -73 callsubr
        </CharString>
        <CharString name="Ograve">
          1693 879 1566 rmoveto
          109 hlineto
          -102 callgsubr
          -460 -1125 -97 callsubr
          -98 callsubr
        </CharString>
        <CharString name="Ohookabove">
          1693 865 166 callsubr
          79 callgsubr
          -74 56 -116 vhcurveto
          -762 -1182 -97 callsubr
          -98 callsubr
        </CharString>
        <CharString name="Ohorn">
          1708 103 721 -97 callsubr
          54 callsubr
        </CharString>
        <CharString name="Ohornacute">
          1708 825 -60 callsubr
          -614 41 callsubr
          54 callsubr
        </CharString>
        <CharString name="Ohorndotbelow">
          1708 103 721 -97 callsubr
          295 -144 232 -216 125 vhcurveto
          -3 21 23 -3 23 hhcurveto
          176 122 58 135 hvcurveto
          1 91 -60 88 -76 57 rrcurveto
          -87 hlineto
          19 -29 16 -61 -1 -50 rrcurveto
          -125 -67 -83 -142 vhcurveto
          -99 -109 25 -141 -66 callgsubr
          63 callsubr
          448 -929 -71 callsubr
          -18 callsubr
        </CharString>
        <CharString name="Ohorngrave">
          1708 883 1566 rmoveto
          109 hlineto
          -102 callgsubr
          -464 -1125 -97 callsubr
          54 callsubr
        </CharString>
        <CharString name="Ohornhookabove">
          1708 869 166 callsubr
          79 callgsubr
          -73 56 -117 vhcurveto
          -766 -1182 -97 callsubr
          54 callsubr
        </CharString>
        <CharString name="Ohorntilde">
          1708 967 73 callsubr
          -21 -31 -40 47 callsubr
          90 callsubr
          -95 callgsubr
          3 21 31 40 hhcurveto
          27 105 callgsubr
          -864 -854 -97 callsubr
          54 callsubr
        </CharString>
        <CharString name="Ohungarumlaut">
          1693 707 1856 rmoveto
          -73 -290 109 0 171 280 rlineto
          10 vlineto
          156 83 callgsubr
          -1191 -1135 -97 callsubr
          -98 callsubr
        </CharString>
        <CharString name="Oinvertedbreve">
          1693 839 1904 rmoveto
          -183 -103 -43 callgsubr
          -68 callgsubr
          55 callgsubr
          -736 -1183 -97 callsubr
          -98 callsubr
        </CharString>
        <CharString name="Omacron">
          1693 558 -27 callsubr
          -455 -1037 -97 callsubr
          -98 callsubr
        </CharString>
        <CharString name="Omacronacute">
          1693 1135 127 callsubr
          -1 -192 rmoveto
          590 105 -590 hlineto
          -441 -963 -97 callsubr
          -98 callsubr
        </CharString>
        <CharString name="Omacrongrave">
          1693 544 1849 rmoveto
          590 -78 0 78 -590 133 rlineto
          -403 vmoveto
          590 105 -590 hlineto
          -441 -963 -97 callsubr
          -98 callsubr
        </CharString>
        <CharString name="Omegagreek">
          1570 80 hmoveto
          605 328 hlineto
          -232 65 -121 183 276 vvcurveto
          316 181 185 265 271 189 -195 -322 -270 -141 -184 -211 -55 vhcurveto
          -327 605 vlineto
          50 367 rlineto
          -71 hlineto
          -65 -166 -156 -9 callgsubr
          -288 -269 -369 -317 226 -209 295 -46 vhcurveto
          -109 vlineto
          -254 2 -154 39 -74 171 rrcurveto
          -71 hlineto
          endchar
        </CharString>
        <CharString name="Omegatonosgreek">
          1744 254 hmoveto
          606 328 hlineto
          -233 65 -120 183 276 vvcurveto
          316 181 185 264 271 189 -195 -322 -270 -140 -184 -211 -55 vhcurveto
          -327 604 vlineto
          50 367 rlineto
          -70 hlineto
          -66 -166 -155 -9 callgsubr
          -289 -269 -369 -317 226 -209 296 -46 vhcurveto
          -109 vlineto
          -254 2 -155 39 -74 171 rrcurveto
          -70 hlineto
          -97 702 -59 callgsubr
          endchar
        </CharString>
        <CharString name="Omicrongreek">
          9 callsubr
          69 callsubr
          -98 callsubr
        </CharString>
        <CharString name="Omicrontonosgreek">
          1800 209 721 rmoveto
          -465 354 -287 387 454 294 333 421 465 -355 77 callsubr
          -103 348 -59 callgsubr
          503 -328 rmoveto
          334 128 276 309 288 175 -299 -349 -334 -127 -276 -310 -288 -175 299 349 vhcurveto
          endchar
        </CharString>
        <CharString name="Oogonek">
          9 callsubr
          191 callsubr
        </CharString>
        <CharString name="Oogonekmacron">
          1693 558 -27 callsubr
          -455 -1037 rmoveto
          191 callsubr
        </CharString>
        <CharString name="Oslash">
          9 callsubr
          183 callsubr
        </CharString>
        <CharString name="Oslashacute">
          1693 821 -60 callsubr
          -610 -845 rmoveto
          183 callsubr
        </CharString>
        <CharString name="Otilde">
          1693 963 81 callsubr
          -99 hlineto
          -91 -3 -21 -31 -40 47 callsubr
          90 callsubr
          -98 -81 -77 -197 hvcurveto
          99 hlineto
          92 3 21 31 40 hhcurveto
          27 105 callgsubr
          -860 -854 -97 callsubr
          -98 callsubr
        </CharString>
        <CharString name="Otildeacute">
          1693 1135 127 callsubr
          419 -223 165 callsubr
          -42 9 -48 hhcurveto
          -94 -77 -55 -118 -94 callgsubr
          -96 callgsubr
          42 -10 48 hhcurveto
          -861 -827 -97 callsubr
          -98 callsubr
        </CharString>
        <CharString name="Otildedieresis">
          1693 680 1795 rmoveto
          53 41 35 46 47 -41 36 -53 hvcurveto
          -11 hlineto
          -54 -41 -36 -47 -46 41 -35 54 hvcurveto
          341 hmoveto
          53 41 35 46 47 -41 36 -53 hvcurveto
          -11 hlineto
          -53 -42 -36 -47 -46 42 -35 53 hvcurveto
          -35 -247 165 callsubr
          -42 9 -48 hhcurveto
          -94 -77 -55 -118 -94 callgsubr
          -96 callgsubr
          42 -10 48 hhcurveto
          -861 -827 -97 callsubr
          -98 callsubr
        </CharString>
        <CharString name="Otildemacron">
          67 callgsubr
          420 -380 165 callsubr
          -42 9 -48 hhcurveto
          -94 -77 -55 -118 -94 callgsubr
          -96 callgsubr
          42 -10 48 hhcurveto
          -861 -827 -97 callsubr
          -98 callsubr
        </CharString>
        <CharString name="P">
          1375 1284 1011 53 callsubr
        </CharString>
        <CharString name="Pacute">
          1375 639 -58 callsubr
          -39 callsubr
          753 -555 53 callsubr
        </CharString>
        <CharString name="Pdotaccent">
          1375 658 -83 callsubr
          -23 callsubr
          626 -586 53 callsubr
        </CharString>
        <CharString name="Pecyrillic">
          1683 1445 211 rmoveto
          1022 vlineto
          89 18 19 154 15 vhcurveto
          88 -1551 0 callsubr
          -106 callsubr
          -72 callsubr
          1129 678 -1129 vlineto
          -86 -19 -17 -143 -15 vhcurveto
          -88 598 88 vlineto
          -154 15 -18 19 89 vvcurveto
          endchar
        </CharString>
        <CharString name="Phigreek">
          1842 89 718 rmoveto
          -317 267 -171 440 -13 vhcurveto
          -2 -91 -24 -23 -160 -15 rrcurveto
          -88 622 88 vlineto
          -160 16 -24 22 -1 91 rrcurveto
          420 15 286 179 313 vvcurveto
          320 -275 168 -431 13 vhcurveto
          92 21 23 164 16 vhcurveto
          88 -622 -88 vlineto
          161 -16 24 -22 1 -93 rrcurveto
          -414 -14 -293 -175 -318 vvcurveto
          1394 2 rmoveto
          -233 -165 -143 -271 -17 vhcurveto
          790 vlineto
          280 -16 156 -142 -239 vvcurveto
          -1124 6 rmoveto
          230 163 144 274 17 vhcurveto
          -790 vlineto
          -277 16 -160 141 242 vvcurveto
          endchar
        </CharString>
        <CharString name="Pigreek">
          1654 1416 211 rmoveto
          1022 vlineto
          89 17 19 154 15 vhcurveto
          88 -1521 0 callsubr
          -106 callsubr
          -72 callsubr
          1129 648 -1129 vlineto
          -86 -19 -17 -142 -15 vhcurveto
          -88 597 88 vlineto
          -154 15 -17 19 89 vvcurveto
          endchar
        </CharString>
        <CharString name="Psigreek">
          1773 1011 225 rmoveto
          269 vlineto
          318 15 173 133 48 327 rrcurveto
          33 219 18 123 32 29 96 4 rlinecurve
          88 vlineto
          4 -27 -53 8 -56 hhcurveto
          -144 -73 -56 -194 -31 hvcurveto
          -35 -230 -36 -228 -77 -110 -186 -22 rlinecurve
          633 vlineto
          86 19 18 143 14 vhcurveto
          89 -573 -89 vlineto
          142 -14 19 -18 -86 vvcurveto
          -633 vlineto
          -186 22 -77 111 -35 227 -36 230 rcurveline
          194 -29 -74 56 -144 hhcurveto
          -56 -54 -8 -4 -27 hvcurveto
          -88 vlineto
          97 -4 31 -29 18 -123 rrcurveto
          33 -219 49 -326 173 -133 317 -16 rlinecurve
          -269 -91 callgsubr
          621 -101 callgsubr
          endchar
        </CharString>
        <CharString name="Q">
          9 callsubr
          -445 323 -282 367 -23 vhcurveto
          129 -117 rlineto
          -200 227 97 -32 128 hhcurveto
          92 93 23 34 67 hvcurveto
          79 vlineto
          -124 -12 -112 47 -196 157 -79 64 rcurveline
          297 104 179 275 330 vvcurveto
          465 -353 287 -387 -455 -293 -333 -421 vhcurveto
          294 20 rmoveto
          334 128 276 308 287 177 -299 -349 vhcurveto
          -334 -1 -127 -276 -309 hhcurveto
          -288 -175 299 349 hvcurveto
          endchar
        </CharString>
        <CharString name="R">
          1395 1269 1050 15 callsubr
        </CharString>
        <CharString name="Racute">
          1395 651 -60 callsubr
          726 -516 15 callsubr
        </CharString>
        <CharString name="Rcaron">
          1395 876 -79 callsubr
          -31 callsubr
          287 -805 15 callsubr
        </CharString>
        <CharString name="Rcommaaccent">
          152 callsubr
          -243 -1520 -63 callsubr
          -91 73 -130 -79 -66 45 callsubr
          19 36 8 36 hhcurveto
          65 50 -29 -50 -52 133 callsubr
        </CharString>
        <CharString name="Rdblgrave">
          1395 466 1856 rmoveto
          -224 -10 hlineto
          265 -280 rlineto
          117 hlineto
          206 70 callgsubr
          366 -516 15 callsubr
        </CharString>
        <CharString name="Rdotaccent">
          1395 670 -83 callsubr
          -1 callsubr
          599 -547 15 callsubr
        </CharString>
        <CharString name="Rdotbelow">
          152 callsubr
          -226 -1217 -71 callsubr
          66 54 -84 callgsubr
        </CharString>
        <CharString name="Rdotbelowmacron">
          1395 388 -27 callsubr
          881 -708 rmoveto
          243 -193 151 -383 vhcurveto
          -627 -86 callsubr
          -106 callsubr
          -72 callsubr
          146 callsubr
          -226 -1217 -71 callsubr
          66 54 -84 callgsubr
        </CharString>
        <CharString name="Rhogreek">
          1375 1284 1011 53 callsubr
        </CharString>
        <CharString name="Rinvertedbreve">
          1395 670 1904 rmoveto
          -184 -103 -43 callgsubr
          92 9 hlineto
          85 68 70 123 6 callgsubr
          599 -854 15 callsubr
        </CharString>
        <CharString name="Rlinebelow">
          152 callsubr
          -517 -1397 1 callsubr
        </CharString>
        <CharString name="S">
          1230 593 -31 104 callsubr
          endchar
        </CharString>
        <CharString name="Sacute">
          1230 627 -58 callsubr
          -39 callsubr
          74 -1597 104 callsubr
          endchar
        </CharString>
        <CharString name="Sacutedotaccent">
          1230 646 1758 rmoveto
          -18 callgsubr
          242 -1565 104 callsubr
          endchar
        </CharString>
        <CharString name="Scaron">
          1230 852 -79 callsubr
          25 callsubr
          -365 -1886 104 callsubr
          endchar
        </CharString>
        <CharString name="Scarondotaccent">
          1230 646 1778 rmoveto
          58 46 39 -49 callgsubr
          -4 callgsubr
          -356 -1711 104 callsubr
          endchar
        </CharString>
        <CharString name="Scedilla">
          1230 565 -491 rmoveto
          132 43 callsubr
          -103 68 -128 3 hvcurveto
          57 76 rlineto
          274 20 208 165 250 vvcurveto
          209 -121 138 -273 86 vhcurveto
          -116 36 rlineto
          -168 53 -93 68 128 vvcurveto
          133 97 94 185 175 135 -94 -215 41 vhcurveto
          81 hlineto
          -11 319 rlineto
          207 callsubr
          83 -65 159 -51 180 -9 -90 -117 rcurveline
          -78 vlineto
          2 8 17 2 16 hhcurveto
          77 58 46 callsubr
          -60 callgsubr
        </CharString>
        <CharString name="Schwa">
          1512 701 -31 rmoveto
          414 295 284 464 488 -295 269 -430 -222 -193 -45 -67 -97 hvcurveto
          -12 -326 rlineto
          82 hlineto
          221 53 141 94 216 hhcurveto
          307 164 -229 -409 hvcurveto
          -6 0 -7 -7 vvcurveto
          -1036 hlineto
          -6 -34 -5 -39 -39 vvcurveto
          -353 203 -259 421 vhcurveto
          -363 604 rmoveto
          6 0 5 6 vvcurveto
          781 hlineto
          -29 -318 -143 -178 -238 -1 rrcurveto
          -266 -105 201 279 hvcurveto
          endchar
        </CharString>
        <CharString name="Scircumflex">
          1230 463 -76 callsubr
          39 callsubr
          236 -1597 104 callsubr
          endchar
        </CharString>
        <CharString name="Scommaaccent">
          1230 593 -31 104 callsubr
          -11 -460 131 callsubr
          -66 -25 -31 -26 hvcurveto
          -78 vlineto
          8 -83 callgsubr
          80 callgsubr
        </CharString>
        <CharString name="Sdotaccent">
          1230 646 -83 callsubr
          -23 callsubr
          -53 -1628 104 callsubr
          endchar
        </CharString>
        <CharString name="Sdotbelow">
          1230 593 -31 104 callsubr
          6 -157 -73 callsubr
        </CharString>
        <CharString name="Sdotbelowdotaccent">
          1230 646 -83 callsubr
          -23 callsubr
          -53 -1628 104 callsubr
          6 -157 -73 callsubr
        </CharString>
        <CharString name="Shacyrillic">
          2364 2126 -19 callsubr
          -598 208 callsubr
          2231 88 vlineto
          -155 15 -16 19 89 vvcurveto
          endchar
        </CharString>
        <CharString name="Shchacyrillic">
          2393 2326 109 rmoveto
          -200 1124 hlineto
          89 16 19 155 15 vhcurveto
          88 -598 208 callsubr
          1885 vlineto
          170 35 -20 -282 82 hvcurveto
          96 hlineto
          endchar
        </CharString>
        <CharString name="Sigmagreek">
          1301 1154 1444 rmoveto
          -1089 -82 hlineto
          477 -653 -477 -577 rlineto
          -132 1123 vlineto
          15 465 rlineto
          -88 hlineto
          -250 -49 -67 -31 -276 hhcurveto
          -476 hlineto
          519 581 0 34 -387 545 368 -11 230 -7 56 -52 49 -201 rlinecurve
          82 hlineto
          endchar
        </CharString>
        <CharString name="Softsigncyrillic">
          1367 217 callsubr
          -283 -11 -12 callgsubr
        </CharString>
        <CharString name="T">
          1400 -47 callsubr
          -64 callsubr
          -56 callsubr
          -55 callsubr
          20 callsubr
          endchar
        </CharString>
        <CharString name="Taugreek">
          1400 -47 callsubr
          -64 callsubr
          -56 callsubr
          -55 callsubr
          20 callsubr
          endchar
        </CharString>
        <CharString name="Tbar">
          1400 276 687 rmoveto
          291 -463 hlineto
          -97 -21 -23 -164 -16 vhcurveto
          -88 -55 callsubr
          23 97 vvcurveto
          463 292 106 -292 549 vlineto
          58 -1 268 -9 67 -34 40 -227 rlinecurve
          82 hlineto
          -11 373 -1272 0 -11 -64 callsubr
          1 rcurveline
          -549 -291 vlineto
          endchar
        </CharString>
        <CharString name="Tcaron">
          1400 906 -79 callsubr
          -31 callsubr
          324 -411 rmoveto
          -1272 hlineto
          -11 -64 callsubr
          -56 callsubr
          -55 callsubr
          20 callsubr
          endchar
        </CharString>
        <CharString name="Tcedilla">
          1400 667 -491 rmoveto
          131 43 callsubr
          -102 -86 callgsubr
          246 88 hlineto
          -165 16 -21 20 callsubr
          -11 373 -1272 0 -11 -64 callsubr
          -56 callsubr
          279 64 callgsubr
          -55 -58 16 23 -34 hvcurveto
          -86 vlineto
          -36 45 75 -23 91 hhcurveto
          endchar
        </CharString>
        <CharString name="Tcircumflexbelow">
          1400 -47 callsubr
          -64 callsubr
          -56 callsubr
          -55 callsubr
          20 callsubr
          -846 -1542 rmoveto
          199 180 194 -180 106 0 -222 338 -157 0 -222 -338 rlineto
          endchar
        </CharString>
        <CharString name="Tcommaaccent">
          1400 -47 callsubr
          -64 callsubr
          -56 callsubr
          -55 callsubr
          20 callsubr
          -664 -1562 -63 callsubr
          26 callsubr
          36 8 37 hhcurveto
          64 50 -29 -50 -52 133 callsubr
        </CharString>
        <CharString name="Tdotaccent">
          1400 699 4 callsubr
          637 -153 rmoveto
          -1272 hlineto
          -11 -64 callsubr
          -56 callsubr
          -55 callsubr
          20 callsubr
          endchar
        </CharString>
        <CharString name="Tdotbelow">
          1400 -47 callsubr
          -64 callsubr
          -56 callsubr
          -55 callsubr
          20 callsubr
          -648 -1259 -71 callsubr
          -18 callsubr
        </CharString>
        <CharString name="Tecyrillic">
          1400 -47 callsubr
          -64 callsubr
          -56 callsubr
          -55 callsubr
          20 callsubr
          endchar
        </CharString>
        <CharString name="Thetagreek">
          1697 845 -31 rmoveto
          456 295 333 421 465 -356 287 -387 -456 -296 -333 -421 -465 356 -287 388 hvcurveto
          18 117 rmoveto
          -299 -181 299 356 341 133 276 319 299 181 -299 -356 -342 -134 -275 -318 hvcurveto
          -318 378 rmoveto
          72 hlineto
          156 26 35 33 102 hhcurveto
          131 hlineto
          102 36 -33 -156 25 hvcurveto
          73 491 -73 hlineto
          -156 -25 -36 -33 -102 hhcurveto
          -131 hlineto
          -102 -35 33 156 -26 hvcurveto
          -72 hlineto
          endchar
        </CharString>
        <CharString name="Thorn">
          1352 1275 739 rmoveto
          271 -242 121 -358 vhcurveto
          -172 89 -90 callgsubr
          -623 -88 vlineto
          155 -15 17 -19 -87 vvcurveto
          -1026 vlineto
          -87 -17 -19 -155 -15 vhcurveto
          -88 -26 callsubr
          100 vlineto
          172 1 rlineto
          351 249 139 274 hvcurveto
          -282 -18 rmoveto
          -194 -141 -89 -258 -8 vhcurveto
          -91 -3 0 602 91 -3 rlineto
          258 -7 141 -102 -196 vvcurveto
          endchar
        </CharString>
        <CharString name="Tlinebelow">
          1400 -47 callsubr
          -64 callsubr
          -56 callsubr
          -55 callsubr
          20 callsubr
          -938 -1439 -40 callsubr
        </CharString>
        <CharString name="Tsecyrillic">
          1714 1646 109 rmoveto
          -201 1124 hlineto
          89 18 19 154 15 vhcurveto
          88 -598 -89 vlineto
          143 -15 19 -17 -86 vvcurveto
          -1128 -678 1128 8 callsubr
          -54 callsubr
          -106 callsubr
          1206 vlineto
          170 35 -20 -282 81 hvcurveto
          96 hlineto
          endchar
        </CharString>
        <CharString name="Tshecyrillic">
          1866 -47 callsubr
          -34 callgsubr
          424 vlineto
          39 65 99 22 113 hhcurveto
          203 104 -108 -222 hvcurveto
          -366 427 88 vlineto
          -143 15 -19 17 86 vvcurveto
          177 vlineto
          329 -198 120 -286 -153 -134 -38 -48 -78 vhcurveto
          594 84 callgsubr
        </CharString>
        <CharString name="U">
          1588 199 1238 -92 callsubr
        </CharString>
        <CharString name="Uacute">
          1588 828 -60 callsubr
          -521 -328 -92 callsubr
        </CharString>
        <CharString name="Ubreve">
          1588 847 1594 rmoveto
          183 103 128 133 17 -1 28 callgsubr
          -92 vlineto
          -3 -15 -1 -17 -17 vvcurveto
          -133 104 -128 183 vhcurveto
          -648 -356 -92 callsubr
        </CharString>
        <CharString name="Ubrevecyrillic">
          1473 797 1594 rmoveto
          195 128 103 132 76 -45 45 -66 -64 -42 -45 -59 -46 29 108 callgsubr
          -40 hvcurveto
          40 12 30 39 46 vvcurveto
          59 -43 45 -63 -67 -44 -45 -76 -132 128 -103 196 vhcurveto
          -542 -1479 190 callsubr
        </CharString>
        <CharString name="Ucaron">
          1588 1053 -79 callsubr
          -31 callsubr
          -960 -617 -92 callsubr
        </CharString>
        <CharString name="Ucircumflex">
          1588 664 -89 callgsubr
          94 callgsubr
          -215 -290 rlineto
          -358 -328 -92 callsubr
        </CharString>
        <CharString name="Ucircumflexbelow">
          105 callsubr
          427 -1709 17 callsubr
        </CharString>
        <CharString name="Ucyrillic">
          1473 255 115 190 callsubr
        </CharString>
        <CharString name="Udblgrave">
          1588 643 1856 rmoveto
          -224 -10 hlineto
          265 -280 rlineto
          117 hlineto
          206 70 callgsubr
          -881 -328 -92 callsubr
        </CharString>
        <CharString name="Udieresis">
          1588 669 -68 callsubr
          -67 callsubr
          -78 callsubr
          -43 callsubr
          -78 callsubr
          -826 -360 -92 callsubr
        </CharString>
        <CharString name="Udieresisacute">
          1588 1142 127 callsubr
          135 -222 rmoveto
          53 42 35 47 46 92 callsubr
          32 callsubr
          40 35 47 46 91 callsubr
          -46 -47 41 -35 53 hvcurveto
          -807 -311 -92 callsubr
        </CharString>
        <CharString name="Udieresisbelow">
          105 callsubr
          405 -1655 -35 callgsubr
        </CharString>
        <CharString name="Udieresiscaron">
          1588 1142 1983 rmoveto
          -295 -89 -296 89 0 -76 267 -137 58 0 265 137 rlineto
          -454 -358 rmoveto
          53 42 35 47 46 92 callsubr
          32 callsubr
          40 35 47 46 91 callsubr
          -46 -47 41 -35 53 hvcurveto
          -807 -311 -92 callsubr
        </CharString>
        <CharString name="Udieresisgrave">
          1588 551 72 callsubr
          136 -433 rmoveto
          53 42 35 47 46 92 callsubr
          32 callsubr
          40 35 47 46 91 callsubr
          -46 -47 41 -35 53 hvcurveto
          -807 -311 -92 callsubr
        </CharString>
        <CharString name="Udieresismacron">
          1588 551 -107 callgsubr
          136 -379 rmoveto
          53 42 35 47 46 92 callsubr
          32 callsubr
          40 35 47 46 91 callsubr
          -46 -47 41 -35 53 hvcurveto
          -807 -311 -92 callsubr
        </CharString>
        <CharString name="Udotbelow">
          105 callsubr
          626 -1426 -73 callsubr
        </CharString>
        <CharString name="Ugrave">
          1588 887 1566 rmoveto
          108 hlineto
          -102 callgsubr
          -371 -608 -92 callsubr
        </CharString>
        <CharString name="Uhookabove">
          1588 872 166 callsubr
          -44 -39 -92 -61 hvcurveto
          92 hlineto
          153 62 55 56 71 vvcurveto
          80 -74 56 -117 vhcurveto
          -673 -665 -92 callsubr
        </CharString>
        <CharString name="Uhorn">
          1686 198 529 50 callsubr
        </CharString>
        <CharString name="Uhornacute">
          1686 847 -58 callsubr
          -39 callsubr
          -541 -1037 50 callsubr
        </CharString>
        <CharString name="Uhorndotbelow">
          1686 198 529 rmoveto
          -375 282 -185 304 359 236 220 361 4 vhcurveto
          8 833 rlineto
          -1 10 11 0 10 hhcurveto
          158 79 69 113 89 -55 90 -72 55 hvcurveto
          -88 hlineto
          21 -29 15 -57 -55 vvcurveto
          -118 -1 -74 -95 -192 hhcurveto
          -142 -88 hlineto
          163 -21 15 -19 -94 vvcurveto
          5 -656 rlineto
          -285 2 -148 -144 -243 hhcurveto
          -228 -174 143 273 hvcurveto
          669 vlineto
          94 21 19 156 21 vhcurveto
          88 -600 -88 vlineto
          137 -20 21 -20 -94 vvcurveto
          636 -1410 -71 callsubr
          66 54 -84 callgsubr
        </CharString>
        <CharString name="Uhorngrave">
          1686 906 -77 callgsubr
          -392 -1317 50 callsubr
        </CharString>
        <CharString name="Uhornhookabove">
          1686 891 -65 callgsubr
          -693 -1374 50 callsubr
        </CharString>
        <CharString name="Uhorntilde">
          1686 990 81 callsubr
          -100 hlineto
          -91 -3 0 callgsubr
          168 callsubr
          -792 -1046 50 callsubr
        </CharString>
        <CharString name="Uhungarumlaut">
          1588 714 1856 rmoveto
          -73 -290 109 0 172 280 rlineto
          10 vlineto
          155 83 callgsubr
          -1102 -618 -92 callsubr
        </CharString>
        <CharString name="Uinvertedbreve">
          1588 847 -53 callgsubr
          1 -17 3 -15 hvcurveto
          92 9 hlineto
          85 69 70 122 6 callgsubr
          -648 -666 -92 callsubr
        </CharString>
        <CharString name="Umacron">
          1588 565 -27 callsubr
          -366 -520 -92 callsubr
        </CharString>
        <CharString name="Umacrondieresis">
          1588 687 1795 rmoveto
          53 42 35 46 47 92 callsubr
          -47 -46 42 -35 53 hvcurveto
          341 hmoveto
          54 40 35 46 47 91 callsubr
          -47 -46 41 -35 53 hvcurveto
          -433 -216 rmoveto
          548 105 -548 hlineto
          -374 -446 -92 callsubr
        </CharString>
        <CharString name="Uogonek">
          1588 851 -491 rmoveto
          84 74 30 40 37 hvcurveto
          87 vlineto
          -14 -18 -30 -11 -35 hhcurveto
          -73 -57 71 103 59 18 60 27 41 hvcurveto
          310 35 193 213 2 327 6 674 rcurveline
          95 19 21 144 15 vhcurveto
          89 -473 -88 vlineto
          155 -15 16 -21 -98 vvcurveto
          5 -649 rlineto
          156 callsubr
          -709 vlineto
          -370 275 -186 300 -4 vhcurveto
          -82 -75 -58 -95 -90 vvcurveto
          -125 96 -75 121 vhcurveto
          endchar
        </CharString>
        <CharString name="Upsilondieresisgreek">
          1404 589 1598 rmoveto
          66 52 50 64 66 -52 50 -66 -78 callsubr
          -43 callsubr
          -78 callsubr
          -711 -429 -77 callsubr
          -66 callsubr
        </CharString>
        <CharString name="Upsilongreek">
          1404 234 1169 -77 callsubr
          -66 callsubr
        </CharString>
        <CharString name="Upsilontonosgreek">
          1764 595 1169 -77 callsubr
          328 526 96 -57 callgsubr
          159 -18 6 181 callsubr
          159 18 rlinecurve
          88 -617 -88 vlineto
          120 -16 32 -28 90 -143 rrcurveto
          -489 -100 -59 callgsubr
          endchar
        </CharString>
        <CharString name="Uring">
          1588 588 1759 rmoveto
          -116 113 -82 146 145 114 82 116 116 -114 83 -145 -146 -113 -83 -116 vhcurveto
          156 hmoveto
          67 44 43 58 58 43 -43 -67 -66 -43 -44 -58 -58 -44 44 66 vhcurveto
          -545 -521 -92 callsubr
        </CharString>
        <CharString name="Utilde">
          1588 970 73 callsubr
          -20 -31 -41 47 callsubr
          90 callsubr
          -95 callgsubr
          -42 callgsubr
          -771 -337 -92 callsubr
        </CharString>
        <CharString name="Utildeacute">
          1588 1142 127 callsubr
          419 -223 165 callsubr
          -41 9 -48 hhcurveto
          -95 -77 -55 -118 hvcurveto
          98 hlineto
          43 27 19 40 25 26 -6 -14 40 vhcurveto
          31 -9 rlineto
          -16 44 41 -10 48 hhcurveto
          -772 -310 -92 callsubr
        </CharString>
        <CharString name="Utildebelow">
          105 callsubr
          744 -1670 66 callsubr
          153 callsubr
        </CharString>
        <CharString name="V">
          87 callgsubr
          endchar
        </CharString>
        <CharString name="Vdotbelow">
          87 callgsubr
          538 -1351 -73 callsubr
        </CharString>
        <CharString name="Vecyrillic">
          1426 1336 422 107 callsubr
        </CharString>
        <CharString name="Vtilde">
          1475 919 73 callsubr
          -20 -31 -41 47 callsubr
          90 callsubr
          -95 callgsubr
          -42 callgsubr
          -715 -412 rmoveto
          201 callsubr
          endchar
        </CharString>
        <CharString name="W">
          2232 201 1163 13 callsubr
        </CharString>
        <CharString name="Wacute">
          2232 1168 -9 callsubr
          -858 -403 13 callsubr
        </CharString>
        <CharString name="Wcircumflex">
          2232 1003 -76 callsubr
          7 callsubr
          -696 -403 13 callsubr
        </CharString>
        <CharString name="Wdieresis">
          2232 1009 -68 callsubr
          -67 callsubr
          -78 callsubr
          -43 callsubr
          -65 -53 -50 -66 -64 52 -50 66 hvcurveto
          -1164 -435 13 callsubr
        </CharString>
        <CharString name="Wdotaccent">
          2232 1186 4 callsubr
          -985 -434 13 callsubr
        </CharString>
        <CharString name="Wdotbelow">
          2232 201 1163 rmoveto
          371 -1163 212 0 336 1077 323 -1077 216 0 368 1158 51 161 30 22 131 15 rlinecurve
          88 -479 -88 vlineto
          158 -20 12 -24 -42 -147 rrcurveto
          -267 -927 -271 924 -44 148 12 26 160 20 rlinecurve
          88 -593 -88 vlineto
          158 -20 11 -24 -41 -147 rrcurveto
          -265 -929 -273 926 -43 148 11 26 160 20 rlinecurve
          88 -610 -88 vlineto
          124 -15 35 -22 49 -156 rrcurveto
          917 -1351 -73 callsubr
        </CharString>
        <CharString name="Wgrave">
          2232 1226 1566 rmoveto
          108 hlineto
          -152 290 rlineto
          -272 -10 hlineto
          -709 -683 13 callsubr
        </CharString>
        <CharString name="X">
          1427 281 287 49 callsubr
        </CharString>
        <CharString name="Xdieresis">
          1427 607 -68 callsubr
          -67 callsubr
          -65 -53 -50 -66 -64 52 -50 66 hvcurveto
          125 callsubr
          -681 -1311 49 callsubr
        </CharString>
        <CharString name="Xdotaccent">
          1427 784 1597 rmoveto
          67 52 49 65 66 -52 49 -67 -23 callsubr
          -503 -1310 49 callsubr
        </CharString>
        <CharString name="Xigreek">
          1372 1278 1444 rmoveto
          -1184 hlineto
          -14 -413 rlineto
          81 hlineto
          192 45 75 37 226 hhcurveto
          358 hlineto
          227 75 -37 -192 44 hvcurveto
          82 hlineto
          -729 -356 rmoveto
          245 8 callgsubr
          -245 hlineto
          -111 -37 37 151 -27 hvcurveto
          -78 -484 78 hlineto
          151 27 37 37 111 hhcurveto
          716 -675 rmoveto
          18 455 rlineto
          -82 hlineto
          -245 -47 -68 -26 -276 hhcurveto
          -278 hlineto
          -276 -67 27 244 -47 hvcurveto
          -82 hlineto
          18 -455 rlineto
          endchar
        </CharString>
        <CharString name="Xigreek.1">
          1376 565 675 rmoveto
          75 -491 -91 hlineto
          -276 -68 27 244 -46 hvcurveto
          -82 hlineto
          17 -455 1187 0 18 455 rlineto
          -81 hlineto
          -245 -48 -67 -26 -276 hhcurveto
          -92 491 75 8 callgsubr
          -75 477 132 hlineto
          227 73 -37 -192 46 hvcurveto
          81 hlineto
          -14 413 -1184 0 -15 -413 rlineto
          82 hlineto
          192 45 75 37 226 hhcurveto
          131 -477 -75 hlineto
          -110 -38 37 151 -27 hvcurveto
          -77 -484 77 hlineto
          151 27 38 37 110 hhcurveto
          endchar
        </CharString>
        <CharString name="Y">
          1404 234 1169 -77 callsubr
          -66 callsubr
        </CharString>
        <CharString name="Yacute">
          1404 748 -58 callsubr
          -39 callsubr
          -406 -397 -77 callsubr
          -66 callsubr
        </CharString>
        <CharString name="Ycircumflex">
          1404 584 -89 callgsubr
          94 callgsubr
          -214 -290 rlineto
          -244 -397 -77 callsubr
          -66 callsubr
        </CharString>
        <CharString name="Ydieresis">
          1404 589 1598 rmoveto
          66 52 50 64 66 -52 50 -66 -78 callsubr
          -43 callsubr
          -78 callsubr
          -711 -429 -77 callsubr
          -66 callsubr
        </CharString>
        <CharString name="Ydotaccent">
          1404 767 -83 callsubr
          -66 -53 -49 -66 -65 52 -49 67 hvcurveto
          -533 -428 -77 callsubr
          -66 callsubr
        </CharString>
        <CharString name="Ydotbelow">
          1404 234 1169 -77 callsubr
          329 526 95 -57 callgsubr
          160 -18 5 181 callsubr
          31 callgsubr
          477 -1357 -71 callsubr
          -18 callsubr
        </CharString>
        <CharString name="Yericyrillic">
          2009 217 callsubr
          490 -242 -85 callsubr
          -103 callsubr
          -99 callsubr
          28 callsubr
          -773 231 -12 callgsubr
        </CharString>
        <CharString name="Ygrave">
          1404 807 1566 rmoveto
          108 hlineto
          -102 callgsubr
          -256 -677 -77 callsubr
          -66 callsubr
        </CharString>
        <CharString name="Yhookabove">
          1404 792 1903 rmoveto
          -98 -73 -38 -39 -38 -26 callgsubr
          -558 -734 -77 callsubr
          -66 callsubr
        </CharString>
        <CharString name="Yicyrillic">
          740 193 -68 callsubr
          -67 callsubr
          -78 callsubr
          -43 callsubr
          34 callsubr
          -46 -1387 -85 callsubr
          -103 callsubr
          -99 callsubr
          -84 callsubr
        </CharString>
        <CharString name="Ymacron">
          1404 485 137 callsubr
          -251 -589 -77 callsubr
          -66 callsubr
        </CharString>
        <CharString name="Ytilde">
          1404 890 73 callsubr
          0 callgsubr
          99 hlineto
          92 76 callgsubr
          50 42 -25 60 hhcurveto
          -656 -406 -77 callsubr
          -66 callsubr
        </CharString>
        <CharString name="Z">
          1287 1196 hmoveto
          -87 callsubr
          56 callsubr
          endchar
        </CharString>
        <CharString name="Zacute">
          1287 626 -58 callsubr
          -261 vlineto
          -161 -290 rlineto
          678 -1566 rmoveto
          -87 callsubr
          56 callsubr
          endchar
        </CharString>
        <CharString name="Zcaron">
          1287 851 37 callgsubr
          238 -1855 rmoveto
          -87 callsubr
          56 callsubr
          endchar
        </CharString>
        <CharString name="Zcircumflex">
          1287 462 -76 callsubr
          7 callsubr
          840 -1566 rmoveto
          -87 callsubr
          56 callsubr
          endchar
        </CharString>
        <CharString name="Zdotaccent">
          1287 645 4 callsubr
          551 -1597 rmoveto
          -87 callsubr
          56 callsubr
          endchar
        </CharString>
        <CharString name="Zdotbelow">
          1287 1196 hmoveto
          -87 callsubr
          56 callsubr
          567 -199 rmoveto
          -67 -53 -49 -65 -66 53 -49 67 66 53 49 66 65 -53 49 -66 hvcurveto
          endchar
        </CharString>
        <CharString name="Zecyrillic">
          1298 1208 420 rmoveto
          221 -160 117 -233 26 vhcurveto
          184 38 149 114 184 vvcurveto
          211 -166 144 -358 -201 -175 -55 -59 -89 vhcurveto
          -11 -319 rlineto
          82 hlineto
          227 55 118 82 192 hhcurveto
          176 101 -102 -164 -170 -113 -113 -206 hvcurveto
          -137 -103 137 hlineto
          238 133 -101 -195 -197 -143 -113 -203 -188 -131 79 241 -56 hvcurveto
          -82 hlineto
          11 -318 rlineto
          -66 100 190 -60 186 hhcurveto
          334 266 176 275 hvcurveto
          endchar
        </CharString>
        <CharString name="Zetagreek">
          1287 1196 hmoveto
          -87 callsubr
          56 callsubr
          endchar
        </CharString>
        <CharString name="Zhecyrillic">
          2040 321 hmoveto
          430 693 rlineto
          138 -487 hlineto
          -86 -15 -17 -148 -15 vhcurveto
          -88 576 88 vlineto
          -147 15 -16 17 86 vvcurveto
          487 138 vlineto
          430 157 callsubr
          -521 -88 vlineto
          161 -13 18 -38 -102 -127 -310 -380 rcurveline
          -135 440 hlineto
          86 16 17 147 15 vhcurveto
          88 -576 -88 vlineto
          148 -15 15 -17 -86 vvcurveto
          -440 -134 vlineto
          -311 380 -103 127 19 38 161 13 rlinecurve
          88 -521 -88 vlineto
          132 -22 45 -38 154 -170 rrcurveto
          235 -264 -312 -496 -133 -212 -50 -50 -78 -22 rlinecurve
          -82 vlineto
          endchar
        </CharString>
        <CharString name="Zlinebelow">
          1287 1196 hmoveto
          -87 callsubr
          56 callsubr
          276 -379 rmoveto
          581 133 -581 hlineto
          endchar
        </CharString>
        <CharString name="a">
          1151 390 -23 -102 callsubr
        </CharString>
        <CharString name="a.dnum">
          742 247 -13 rmoveto
          93 75 38 53 58 callgsubr
          -3 -8 -10 0 -12 hhcurveto
          -32 -27 17 45 hvcurveto
          234 vlineto
          143 -97 61 -159 -157 -112 -64 -83 -46 36 -32 50 49 37 36 47 20 -8 18 -12 13 vhcurveto
          6 34 callgsubr
          107 callgsubr
          49 37 30 100 20 vhcurveto
          61 13 rlineto
          -145 vlineto
          -26 -21 -39 -16 -45 hhcurveto
          -54 -39 27 48 hvcurveto
          endchar
        </CharString>
        <CharString name="a.numr">
          742 247 637 210 callsubr
          -37 -64 -62 -86 vvcurveto
          -82 71 -60 106 vhcurveto
          -3 173 rmoveto
          2 callgsubr
        </CharString>
        <CharString name="a.sups">
          742 247 819 210 callsubr
          107 callgsubr
          2 callgsubr
        </CharString>
        <CharString name="aacute">
          1151 509 -42 callsubr
          -9 -1192 -102 callsubr
        </CharString>
        <CharString name="abreve">
          1151 539 -88 callgsubr
          176 callsubr
          115 -144 202 vhcurveto
          -149 -1201 -102 callsubr
        </CharString>
        <CharString name="abreveacute">
          1151 828 138 callsubr
          288 -305 rmoveto
          175 121 101 157 -7 hvcurveto
          -96 hlineto
          -68 -1 -83 65 callsubr
          -149 -1161 -102 callsubr
        </CharString>
        <CharString name="abrevecyrillic">
          1151 540 1172 rmoveto
          196 -20 callgsubr
          47 8 35 49 callgsubr
          197 vhcurveto
          -150 -1195 -102 callsubr
        </CharString>
        <CharString name="abrevedotbelow">
          1151 539 -88 callgsubr
          176 callsubr
          115 -144 202 vhcurveto
          -149 -1201 48 callsubr
          260 -699 -11 callsubr
        </CharString>
        <CharString name="abrevegrave">
          1151 251 86 callgsubr
          288 -553 rmoveto
          175 121 101 157 -7 hvcurveto
          -96 hlineto
          -68 -1 -83 65 callsubr
          -149 -1161 -102 callsubr
        </CharString>
        <CharString name="abrevehookabove">
          1151 533 1683 rmoveto
          -74 -67 -26 -30 -38 hvcurveto
          -76 vlineto
          16 27 50 14 49 hhcurveto
          65 37 -24 -40 -39 -36 -23 -78 -54 callgsubr
          -95 48 -104 vhcurveto
          6 -545 rmoveto
          175 121 101 157 -7 hvcurveto
          -96 hlineto
          -68 -1 -83 65 callsubr
          -149 -1161 -102 callsubr
        </CharString>
        <CharString name="abrevetilde">
          1151 660 175 callsubr
          -38 vhcurveto
          -31 122 callsubr
          -61 callgsubr
          42 -11 46 hhcurveto
          -121 -329 rmoveto
          175 121 101 157 -7 hvcurveto
          -96 hlineto
          -68 -1 -83 65 callsubr
          -149 -1161 -102 callsubr
        </CharString>
        <CharString name="acaron">
          1151 752 5 callsubr
          -209 201 -49 callsubr
          -473 -1566 -102 callsubr
        </CharString>
        <CharString name="acircumflex">
          1151 326 -46 callsubr
          -38 callsubr
          174 -1192 -102 callsubr
        </CharString>
        <CharString name="acircumflexacute">
          1151 828 138 callsubr
          -305 vmoveto
          -65 callsubr
          139 -1255 -102 callsubr
        </CharString>
        <CharString name="acircumflexdotbelow">
          1151 326 -46 callsubr
          -38 callsubr
          174 -1192 48 callsubr
          260 -699 -11 callsubr
        </CharString>
        <CharString name="acircumflexgrave">
          1151 251 86 callgsubr
          -553 vmoveto
          -65 callsubr
          139 -1255 -102 callsubr
        </CharString>
        <CharString name="acircumflexhookabove">
          1151 763 206 callsubr
          139 -1255 -102 callsubr
        </CharString>
        <CharString name="acircumflextilde">
          1151 660 175 callsubr
          -38 vhcurveto
          -31 122 callsubr
          -61 callgsubr
          42 -11 46 hhcurveto
          -409 -329 rmoveto
          -65 callsubr
          139 -1255 -102 callsubr
        </CharString>
        <CharString name="acute">
          1024 482 -8 callsubr
          endchar
        </CharString>
        <CharString name="acutecmb">
          0 -30 -8 callsubr
          endchar
        </CharString>
        <CharString name="acutecmb.short">
          0 -19 1133 rmoveto
          314 280 rlineto
          9 -262 vlineto
          -160 -289 rlineto
          endchar
        </CharString>
        <CharString name="acutedotaccentcmb">
          3 callgsubr
          -195 rmoveto
          155 -79 callgsubr
          endchar
        </CharString>
        <CharString name="acutedotaccentcmb.short">
          0 1758 vmoveto
          -18 callgsubr
          endchar
        </CharString>
        <CharString name="acyrillic">
          1151 390 -23 -102 callsubr
        </CharString>
        <CharString name="adblgrave">
          1151 290 -29 callsubr
          118 callsubr
          -382 -1192 -102 callsubr
        </CharString>
        <CharString name="adieresis">
          1151 302 68 callsubr
          -386 -1251 -102 callsubr
        </CharString>
        <CharString name="adieresismacron">
          1151 251 1497 rmoveto
          577 120 -577 hlineto
          120 -460 rmoveto
          -24 callsubr
          -11 hlineto
          -55 -44 -43 -55 -55 44 -41 55 hvcurveto
          -62 callsubr
          -81 callsubr
          -318 -1180 -102 callsubr
        </CharString>
        <CharString name="adotaccent">
          1151 539 27 callsubr
          94 callsubr
          -149 -1243 -102 callsubr
        </CharString>
        <CharString name="adotbelow">
          1151 390 -23 48 callsubr
          260 -699 -11 callsubr
        </CharString>
        <CharString name="adotmacron">
          1151 251 -25 callgsubr
          -149 -1179 -102 callsubr
        </CharString>
        <CharString name="ae">
          1700 396 -23 142 callsubr
        </CharString>
        <CharString name="aeacute">
          1700 819 -51 callsubr
          -313 -1192 142 callsubr
        </CharString>
        <CharString name="aemacron">
          1700 537 -44 callsubr
          -141 -1439 142 callsubr
        </CharString>
        <CharString name="agrave">
          1151 570 1169 rmoveto
          111 hlineto
          -41 callsubr
          158 -1555 -102 callsubr
        </CharString>
        <CharString name="ahookabove">
          1151 574 74 callsubr
          31 55 20 60 160 callsubr
          -184 -1574 -102 callsubr
        </CharString>
        <CharString name="ainvertedbreve">
          1151 539 1534 rmoveto
          -202 -115 -145 -153 -20 2 -19 3 -17 hvcurveto
          -19 callgsubr
          -149 -1557 -102 callsubr
        </CharString>
        <CharString name="alphagreek">
          1321 483 -22 184 callsubr
        </CharString>
        <CharString name="alphatonosgreek">
          1321 665 1168 232 callsubr
          -76 -1190 184 callsubr
        </CharString>
        <CharString name="amacron">
          1151 227 -44 callsubr
          163 -1439 -102 callsubr
        </CharString>
        <CharString name="ampersand">
          1614 522 -27 rmoveto
          192 146 85 164 147 hvcurveto
          238 -222 rlineto
          343 82 hlineto
          -80 24 -66 48 -206 192 rrcurveto
          -75 69 128 169 136 180 53 28 110 13 rlinecurve
          88 -483 -88 vlineto
          156 -24 15 -40 -97 -144 rrcurveto
          -82 -122 -341 316 -9 9 -9 8 -9 8 rlinecurve
          221 96 100 114 143 vvcurveto
          183 -151 123 -234 -249 -167 -152 -189 -123 50 -100 129 -139 vhcurveto
          -236 -93 -107 -133 -174 vvcurveto
          -245 188 -154 249 vhcurveto
          -43 1211 rmoveto
          100 72 71 114 115 70 -85 -120 -1 vhcurveto
          -1 -123 -57 -83 -122 -71 rrcurveto
          -143 140 -47 77 94 vvcurveto
          -161 -717 rmoveto
          110 55 76 113 59 vhcurveto
          29 -29 32 -31 36 -34 368 -343 rcurveline
          -105 -96 -92 -45 -105 hhcurveto
          -184 -156 136 206 hvcurveto
          endchar
        </CharString>
        <CharString name="anoteleiagreek">
          566 283 727 rmoveto
          121 callsubr
          endchar
        </CharString>
        <CharString name="aogonek">
          1148 390 -23 rmoveto
          153 125 69 83 60 hvcurveto
          -91 25 82 -53 108 3 2 0 3 hhcurveto
          -178 -110 -62 -92 -97 vvcurveto
          -111 95 -66 113 85 80 29 45 40 vhcurveto
          86 vlineto
          -16 -19 -35 -12 -42 hhcurveto
          -53 -48 35 72 86 51 79 143 121 hvcurveto
          82 vlineto
          -6 -14 -20 -3 -21 hhcurveto
          -58 -49 31 88 hvcurveto
          476 vlineto
          228 -153 103 -247 -245 -192 -102 -142 -71 55 -49 74 74 55 51 68 41 -20 36 -30 21 vhcurveto
          19 43 52 10 57 hhcurveto
          142 95 -60 -175 hvcurveto
          -72 vlineto
          -234 -51 rlineto
          -283 -62 -113 -99 -162 vvcurveto
          -149 125 -108 176 vhcurveto
          -58 298 rmoveto
          102 70 59 184 41 vhcurveto
          133 28 rlineto
          -295 vlineto
          -59 -41 -76 -38 -90 hhcurveto
          -104 -76 60 102 hvcurveto
          endchar
        </CharString>
        <CharString name="approxequal">
          1218 861 792 rmoveto
          -136 -178 217 -187 hhcurveto
          -179 -115 -117 -262 hvcurveto
          145 hlineto
          159 4 54 -13 callgsubr
          -487 vmoveto
          -2 callgsubr
          56 87 137 177 -216 187 hhcurveto
          179 115 116 262 hvcurveto
          -146 hlineto
          -159 -3 -54 -56 -87 hhcurveto
          endchar
        </CharString>
        <CharString name="aring">
          1151 253 225 callsubr
          50 -50 -74 -75 -50 -50 -64 -63 -50 50 75 vhcurveto
          -36 -1380 -102 callsubr
        </CharString>
        <CharString name="aringacute">
          1151 828 1538 rmoveto
          156 -80 callgsubr
          53 callgsubr
          -86 hlineto
          -127 -83 -59 -89 -89 83 -59 127 hvcurveto
          77 91 rmoveto
          -68 hlineto
          -43 -25 24 33 33 25 24 43 hvcurveto
          68 hlineto
          44 24 -24 -33 -33 -24 -24 -44 hvcurveto
          -183 -1224 -102 callsubr
        </CharString>
        <CharString name="aringbelow">
          1151 390 -23 48 callsubr
          -26 -577 -31 callgsubr
          49 -41 -63 -63 -49 -41 -64 -63 -50 42 62 vhcurveto
          endchar
        </CharString>
        <CharString name="asciicircum">
          1218 570 1444 rmoveto
          -464 -599 110 -103 392 500 389 -500 115 103 -463 599 rlineto
          endchar
        </CharString>
        <CharString name="asciitilde">
          1218 861 556 rmoveto
          -2 callgsubr
          -13 callgsubr
          endchar
        </CharString>
        <CharString name="asterisk">
          808 383 1138 rmoveto
          42 hlineto
          56 214 rlineto
          74 23 -47 49 -53 hhcurveto
          -54 -45 -48 -75 23 hvcurveto
          97 -214 rmoveto
          20 -38 209 59 rlineto
          76 18 18 65 -26 45 -27 48 -66 14 -52 -58 rrcurveto
          -214 -191 rmoveto
          20 38 -152 153 rlineto
          -52 58 -66 -15 -26 -47 -27 -46 18 -64 77 -18 rrcurveto
          228 -97 rmoveto
          -20 38 -208 -60 rlineto
          -76 -17 -19 -65 27 -46 27 -47 65 -15 52 58 rrcurveto
          214 192 rmoveto
          -20 -38 152 -154 rlineto
          52 -58 66 15 27 47 27 46 -19 65 -76 17 rrcurveto
          -229 22 rmoveto
          -42 hlineto
          -55 -214 rlineto
          -75 -23 46 -48 53 hhcurveto
          54 46 48 75 -23 hvcurveto
          endchar
        </CharString>
        <CharString name="at">
          2021 584 377 rmoveto
          -212 83 -124 142 114 109 61 142 78 vhcurveto
          -135 -12 70 -88 163 hhcurveto
          305 280 267 424 424 -321 293 -502 -614 -373 -489 -515 -505 339 -329 447 182 182 50 69 81 hvcurveto
          3 88 rlineto
          -65 -127 -125 -23 -169 hhcurveto
          -397 -281 273 456 429 317 443 539 416 268 -228 -383 -354 -215 -193 -170 -78 -20 35 93 20 hvcurveto
          148 691 -136 0 -81 -109 rlineto
          79 -30 -72 57 -113 hhcurveto
          -261 -189 -316 -306 hvcurveto
          219 -4 rmoveto
          239 113 284 165 79 46 -63 -90 vhcurveto
          -62 -293 rlineto
          -148 -32 -99 -123 -100 hhcurveto
          -72 -38 77 117 hvcurveto
          endchar
        </CharString>
        <CharString name="atilde">
          1151 667 30 callsubr
          119 callsubr
          -78 callgsubr
          43 hhcurveto
          28 104 callgsubr
          -277 -1234 -102 callsubr
        </CharString>
        <CharString name="austral">
          1467 212 287 rmoveto
          -59 -160 -24 -24 -130 -15 rrcurveto
          -88 476 88 vlineto
          -159 20 -21 27 52 148 rrcurveto
          31 92 590 0 32 -92 51 -147 -20 -28 -159 -20 rlinecurve
          -88 596 88 vlineto
          -125 15 -29 24 -56 154 -34 94 rcurveline
          244 80 -273 hlineto
          -72 201 rlineto
          345 80 -374 hlineto
          -256 708 -203 0 -259 -708 rlineto
          -377 -80 348 hlineto
          -74 -201 rlineto
          -274 -80 245 hlineto
          258 361 rmoveto
          171 500 172 -500 rlineto
          -439 -281 rmoveto
          68 201 398 0 69 -201 rlineto
          endchar
        </CharString>
        <CharString name="austral.tnum">
          1218 -1 453 rmoveto
          -80 193 vlineto
          -26 -89 -46 -159 -12 -27 -109 -10 rlinecurve
          -88 385 88 vlineto
          -125 13 -13 19 45 163 rrcurveto
          25 90 456 0 24 -90 45 -163 -13 -18 -129 -14 rlinecurve
          -88 520 88 vlineto
          -108 10 -13 25 -47 161 -26 89 rcurveline
          195 80 -219 hlineto
          -58 200 rlineto
          277 80 -300 hlineto
          -206 711 -208 0 -208 -711 rlineto
          -299 -80 275 hlineto
          -58 -200 rlineto
          200 280 rmoveto
          130 471 128 -471 rlineto
          -336 -280 rmoveto
          56 200 302 0 54 -200 rlineto
          endchar
        </CharString>
        <CharString name="b">
          -58 callgsubr
          endchar
        </CharString>
        <CharString name="backslash">
          688 499 -280 rmoveto
          189 hlineto
          -498 1860 rlineto
          -189 hlineto
          endchar
        </CharString>
        <CharString name="baht">
          1372 79 30 rmoveto
          592 -219 80 220 hlineto
          303 14 215 140 247 vvcurveto
          214 -159 119 -241 21 vhcurveto
          184 26 142 100 179 vvcurveto
          189 -148 120 -296 13 vhcurveto
          220 -80 -219 -592 -88 vlineto
          43 callgsubr
          416 686 rmoveto
          509 vlineto
          127 -5 17 -1 17 -1 15 -1 rlinecurve
          -500 vlineto
          -1 -7 -7 0 -8 hhcurveto
          294 251 rmoveto
          -133 -69 -81 -123 -27 vhcurveto
          477 vlineto
          134 -34 58 -83 -119 vvcurveto
          -448 -353 rmoveto
          154 hlineto
          8 7 0 7 hhcurveto
          -563 vlineto
          -16 -1 -16 -1 -17 -1 -127 -5 rcurveline
          514 289 rmoveto
          -154 -98 -84 -160 -32 vhcurveto
          545 vlineto
          167 -26 91 -93 -156 vvcurveto
          endchar
        </CharString>
        <CharString name="baht.tnum">
          1218 57 34 rmoveto
          554 -223 80 224 hlineto
          277 13 216 143 233 14 callgsubr
          168 -130 118 -286 10 vhcurveto
          224 -80 -223 -554 -88 vlineto
          44 callgsubr
          398 680 rmoveto
          509 vlineto
          128 -3 rlineto
          9 9 0 -1 10 hvcurveto
          -504 vlineto
          -9 -9 -1 -10 hhcurveto
          282 266 rmoveto
          -123 -60 -93 -114 -35 vhcurveto
          477 vlineto
          110 -31 64 -77 -118 vvcurveto
          -410 -364 rmoveto
          128 hlineto
          10 9 -1 9 hhcurveto
          -566 vlineto
          -1 -10 -9 0 -9 hhcurveto
          -128 -3 rlineto
          478 284 rmoveto
          -154 -103 -85 -139 -30 vhcurveto
          547 vlineto
          154 -28 88 -93 -157 vvcurveto
          endchar
        </CharString>
        <CharString name="bar">
          688 250 -280 rmoveto
          189 1860 -189 hlineto
          endchar
        </CharString>
        <CharString name="bdotaccent">
          1255 290 1654 rmoveto
          78 62 57 78 77 -62 58 -78 -77 -63 -58 -77 -78 62 -57 78 hvcurveto
          869 -1136 193 callsubr
          endchar
        </CharString>
        <CharString name="bdotbelow">
          -58 callgsubr
          -267 -922 2 callsubr
          33 callsubr
        </CharString>
        <CharString name="becyrillic">
          1269 1173 503 rmoveto
          306 -198 193 -309 -203 -151 -108 -156 -77 vhcurveto
          17 -1 17 17 vvcurveto
          214 91 170 282 30 vhcurveto
          127 13 293 31 87 70 15 196 rlinecurve
          -87 hlineto
          -18 -50 -45 -15 -224 -25 -218 -25 -135 -64 -106 -103 rrcurveto
          -131 -130 -65 -198 -317 vvcurveto
          -362 190 -247 333 297 253 200 326 vhcurveto
          -259 -17 rmoveto
          -231 -92 -160 -180 -170 -104 167 234 228 91 161 182 163 110 -163 -236 vhcurveto
          endchar
        </CharString>
        <CharString name="betagreek">
          1216 147 -460 rmoveto
          250 hlineto
          -3 201 -3 178 -2 158 rrcurveto
          -55 58 103 -48 124 hhcurveto
          232 225 156 282 254 -166 158 -209 32 hvcurveto
          148 20 154 116 182 vvcurveto
          203 -152 144 -283 -271 -205 -150 -384 vhcurveto
          233 85 rmoveto
          213 79 116 160 141 73 -102 -152 -169 -111 -95 -212 2 vhcurveto
          -172 vlineto
          246 -6 134 -128 -203 vvcurveto
          -185 -118 -94 -151 -102 -83 38 58 -48 vhcurveto
          -7 482 -1 267 130 vvcurveto
          endchar
        </CharString>
        <CharString name="bitcoin">
          1365 79 30 rmoveto
          426 -219 80 219 108 hlineto
          33 32 1 3 31 hvcurveto
          -223 80 234 vlineto
          235 43 158 133 211 vvcurveto
          214 -158 119 -242 21 vhcurveto
          184 26 142 100 179 vvcurveto
          160 -106 111 -213 38 vhcurveto
          233 -80 -223 vlineto
          3 -30 -32 1 -34 hhcurveto
          -108 219 -80 -219 -426 -88 hlineto
          43 callgsubr
          857 937 rmoveto
          -166 -107 -85 -187 vhcurveto
          -147 509 hlineto
          120 -5 rlineto
          227 -8 94 -93 -152 vvcurveto
          66 -635 rmoveto
          -192 -151 -83 -236 -9 vhcurveto
          -120 -5 rlineto
          571 147 vlineto
          231 129 -96 -186 hvcurveto
          endchar
        </CharString>
        <CharString name="bitcoin.tnum">
          1218 57 34 rmoveto
          383 -223 81 223 127 hlineto
          26 26 1 2 25 hvcurveto
          -226 80 238 vlineto
          220 42 159 133 200 14 callgsubr
          143 -95 107 -207 35 vhcurveto
          235 -80 -226 vlineto
          2 -24 -26 1 -27 hhcurveto
          -127 223 -81 -223 -383 -88 hlineto
          44 callgsubr
          805 946 rmoveto
          -157 -97 -109 -183 vhcurveto
          -125 509 hlineto
          124 -3 rlineto
          175 -4 106 -84 -152 vvcurveto
          69 -653 rmoveto
          -190 -161 -85 -189 -4 vhcurveto
          -124 -3 rlineto
          571 125 vlineto
          220 129 -99 -190 hvcurveto
          endchar
        </CharString>
        <CharString name="blinebelow">
          -58 callgsubr
          -558 -866 1 callsubr
        </CharString>
        <CharString name="braceleft">
          688 430 976 rmoveto
          251 vlineto
          145 29 120 171 vhcurveto
          88 -47 vlineto
          -237 -123 -135 -210 hvcurveto
          -327 vlineto
          -154 -87 -64 -113 vhcurveto
          -77 vlineto
          113 87 -63 -154 hvcurveto
          -330 vlineto
          -211 123 -135 237 vhcurveto
          47 88 hlineto
          -171 -29 120 145 hvcurveto
          254 vlineto
          191 -82 106 -169 28 vhcurveto
          169 28 82 105 191 vvcurveto
          endchar
        </CharString>
        <CharString name="braceright">
          688 258 976 rmoveto
          -191 83 -105 169 -28 vhcurveto
          -169 -28 -83 -106 -191 vvcurveto
          -254 vlineto
          -145 -28 -120 -171 vhcurveto
          -88 46 vlineto
          237 124 135 211 hvcurveto
          330 vlineto
          154 86 63 113 vhcurveto
          77 vlineto
          -113 -86 64 154 hvcurveto
          327 vlineto
          210 -124 135 -237 vhcurveto
          -46 -88 hlineto
          171 28 -120 -145 hvcurveto
          endchar
        </CharString>
        <CharString name="bracketleft">
          688 167 -280 rmoveto
          451 88 -239 1684 239 88 -451 hlineto
          endchar
        </CharString>
        <CharString name="bracketright">
          688 521 1580 rmoveto
          -450 -88 239 -1684 -239 -88 450 hlineto
          endchar
        </CharString>
        <CharString name="breve">
          1024 512 -88 callgsubr
          -101 -10 hlineto
          -95 -76 -103 callgsubr
          -101 -93 callgsubr
          44 callsubr
          endchar
        </CharString>
        <CharString name="breveacutecmb">
          -82 callgsubr
          288 -305 117 callsubr
        </CharString>
        <CharString name="breveacutecmb.short">
          123 callsubr
          295 -249 14 callsubr
          endchar
        </CharString>
        <CharString name="brevebelowcmb">
          0 -461 vmoveto
          189 -69 callgsubr
          -72 81 callgsubr
        </CharString>
        <CharString name="brevecmb">
          0 1178 vmoveto
          203 114 144 153 20 -1 20 -3 17 hvcurveto
          -101 -10 hlineto
          -95 -76 -103 callgsubr
          -101 -93 callgsubr
          44 callsubr
          endchar
        </CharString>
        <CharString name="brevecmb.short">
          0 1160 vmoveto
          -14 callgsubr
          endchar
        </CharString>
        <CharString name="brevecyrilliccmb">
          0 1172 vmoveto
          196 131 113 142 82 -47 46 -71 -66 -43 -48 -61 -52 35 -44 46 -9 hvcurveto
          -41 -41 -63 -24 -77 hhcurveto
          -77 -64 24 42 -40 hvcurveto
          46 8 36 44 52 vvcurveto
          61 -45 48 -65 -71 -46 -45 -83 -142 130 -113 196 vhcurveto
          endchar
        </CharString>
        <CharString name="brevecyrilliccmb.short">
          0 1594 vmoveto
          211 callsubr
          endchar
        </CharString>
        <CharString name="brevegravecmb">
          0 -288 -64 callgsubr
          288 -553 117 callsubr
        </CharString>
        <CharString name="brevegravecmb.short">
          0 -296 72 callsubr
          296 -460 14 callsubr
          endchar
        </CharString>
        <CharString name="brevehookabovecmb">
          0 -6 1683 rmoveto
          -74 -67 -26 -30 -39 hvcurveto
          -76 vlineto
          16 28 50 14 49 hhcurveto
          65 36 -24 -40 -39 -35 -23 -79 -54 callgsubr
          -94 48 -104 vhcurveto
          6 -545 117 callsubr
        </CharString>
        <CharString name="brevehookabovecmb.short">
          0 -6 214 callsubr
          endchar
        </CharString>
        <CharString name="brevetildecmb">
          0 121 1467 95 callsubr
          -51 -25 -20 -39 -67 callgsubr
          74 callgsubr
          -121 -329 117 callsubr
        </CharString>
        <CharString name="brevetildecmb.short">
          0 124 200 callsubr
          endchar
        </CharString>
        <CharString name="brokenbar">
          688 250 789 rmoveto
          189 791 -189 hlineto
          -1860 vmoveto
          189 791 -189 hlineto
          endchar
        </CharString>
        <CharString name="bullet">
          805 403 41 callgsubr
          -99 -97 -121 -121 99 -97 118 hvcurveto
          endchar
        </CharString>
        <CharString name="c">
          1061 606 -23 19 callsubr
        </CharString>
        <CharString name="cacute">
          1061 587 -8 callsubr
          130 -1192 19 callsubr
        </CharString>
        <CharString name="caret">
          566 249 hmoveto
          -292 -361 90 -90 235 288 234 -288 94 90 -291 361 rlineto
          endchar
        </CharString>
        <CharString name="caron">
          1024 725 5 callsubr
          86 callsubr
          endchar
        </CharString>
        <CharString name="caroncmb">
          0 213 5 callsubr
          86 callsubr
          endchar
        </CharString>
        <CharString name="caroncmb.short">
          0 206 1421 rmoveto
          -195 -150 -192 150 25 callsubr
          endchar
        </CharString>
        <CharString name="carondotaccentcmb">
          3 callgsubr
          -28 -40 callgsubr
          -92 260 -170 57 0 259 170 rlineto
          endchar
        </CharString>
        <CharString name="carondotaccentcmb.short">
          0 1778 vmoveto
          58 46 39 -49 callgsubr
          -4 callgsubr
          endchar
        </CharString>
        <CharString name="caronslovak">
          1024 473 1123 rmoveto
          164 421 -204 0 -45 -421 rlineto
          endchar
        </CharString>
        <CharString name="caronslovakcmb">
          0 105 91 callgsubr
          endchar
        </CharString>
        <CharString name="ccaron">
          1061 830 5 callsubr
          86 callsubr
          -334 -1566 19 callsubr
        </CharString>
        <CharString name="ccedilla">
          1061 562 -491 rmoveto
          132 43 callsubr
          -103 68 -128 3 hvcurveto
          62 84 153 10 123 58 68 78 rlinecurve
          149 callsubr
          -21 callgsubr
        </CharString>
        <CharString name="ccedillaacute">
          1061 587 -8 callsubr
          86 -1660 rmoveto
          132 43 callsubr
          -103 68 -128 3 hvcurveto
          62 84 153 10 123 58 68 78 rlinecurve
          149 callsubr
          -21 callgsubr
        </CharString>
        <CharString name="ccircumflex">
          1061 404 37 callsubr
          210 -200 -70 callgsubr
          312 -1192 19 callsubr
        </CharString>
        <CharString name="cdotaccent">
          1061 617 -30 callsubr
          -11 -1243 19 callsubr
        </CharString>
        <CharString name="cedi">
          1361 743 -189 rmoveto
          80 199 hlineto
          172 178 54 60 84 hvcurveto
          10 318 rlineto
          -81 hlineto
          -242 -58 -111 -69 -177 -6 -6 0 -5 hhcurveto
          1182 vlineto
          1 5 6 0 6 hhcurveto
          177 104 -80 -228 58 hvcurveto
          82 hlineto
          -11 318 -100 59 -135 48 -192 3 rlinecurve
          199 -80 -202 vlineto
          -367 -26 -263 -249 -432 vvcurveto
          -430 282 -249 348 -31 vhcurveto
          -367 729 rmoveto
          318 133 202 234 42 vhcurveto
          -1164 vlineto
          -219 49 -148 219 334 vvcurveto
          endchar
        </CharString>
        <CharString name="cedi.tnum">
          1218 671 -189 rmoveto
          81 200 hlineto
          155 3 150 44 86 49 11 310 rcurveline
          -81 hlineto
          -55 -225 -102 -63 -151 1 rrcurveto
          -4 -5 0 -4 hhcurveto
          1183 vlineto
          4 5 0 4 hhcurveto
          135 98 -69 -211 52 hvcurveto
          82 hlineto
          -11 311 -90 49 -117 38 -162 3 rlinecurve
          199 -81 -202 vlineto
          -332 -27 -245 -253 1 -427 1 -461 264 -225 311 -25 rrcurveto
          -315 731 rmoveto
          320 111 196 204 44 vhcurveto
          -1164 vlineto
          -195 46 -120 199 359 vvcurveto
          endchar
        </CharString>
        <CharString name="cedilla">
          1024 478 -491 rmoveto
          133 43 callsubr
          -104 68 -127 3 hvcurveto
          77 105 rlineto
          44 -76 vlineto
          -147 -190 36 callsubr
          78 57 -27 -57 -54 -53 -27 -67 -57 -56 83 callsubr
          90 hhcurveto
          endchar
        </CharString>
        <CharString name="cedillacmb">
          0 -34 -491 rmoveto
          133 43 callsubr
          -104 -86 callgsubr
          44 -76 vlineto
          -147 -190 36 callsubr
          173 callsubr
          endchar
        </CharString>
        <CharString name="cent">
          1081 652 224 callsubr
          -29 -21 -19 -36 -41 vvcurveto
          -71 54 -56 72 72 220 callsubr
          191 91 127 134 42 230 callsubr
        </CharString>
        <CharString name="cent.1">
          1057 648 hmoveto
          195 vlineto
          152 10 123 58 68 79 rrcurveto
          88 vlineto
          -55 -62 -99 -35 -96 -23 callgsubr
          72 57 57 77 142 -127 88 -209 6 vhcurveto
          194 -80 -197 vlineto
          -259 -25 -213 -195 -313 vvcurveto
          -307 206 -196 266 -16 vhcurveto
          -195 vlineto
          endchar
        </CharString>
        <CharString name="cent.1.tnum">
          1218 686 hmoveto
          195 vlineto
          153 10 123 58 67 79 rrcurveto
          88 vlineto
          -55 -61 -100 -35 -95 -23 callgsubr
          71 58 57 77 142 -127 88 -210 6 vhcurveto
          194 -80 -197 vlineto
          -258 -25 -213 -195 -313 vvcurveto
          -306 206 -196 265 -17 vhcurveto
          -195 vlineto
          endchar
        </CharString>
        <CharString name="cent.tnum">
          1218 679 224 callsubr
          -28 -21 -19 -36 -41 vvcurveto
          -71 53 -56 73 71 220 callsubr
          190 92 127 133 43 230 callsubr
        </CharString>
        <CharString name="checyrillic">
          1291 176 709 rmoveto
          -227 144 -106 195 126 114 33 41 68 vhcurveto
          -268 vlineto
          -74 -20 -12 -140 -8 vhcurveto
          -88 553 88 vlineto
          -128 7 -20 12 75 vvcurveto
          647 vlineto
          74 20 12 128 7 vhcurveto
          88 -528 -88 vlineto
          119 -7 16 -11 -73 vvcurveto
          -292 vlineto
          -18 -38 -88 -20 -76 hhcurveto
          -132 -71 67 160 hvcurveto
          103 vlineto
          73 17 12 116 6 vhcurveto
          88 -522 -88 vlineto
          128 -7 19 -12 -74 vvcurveto
          endchar
        </CharString>
        <CharString name="chigreek">
          1151 296 -460 rmoveto
          202 635 150 -335 rlineto
          -234 100 76 -84 140 hhcurveto
          77 59 31 43 43 hvcurveto
          86 vlineto
          -9 -14 -27 -8 -29 hhcurveto
          -73 -44 41 187 -88 hvcurveto
          -183 407 125 234 138 241 154 235 rlinecurve
          -266 hlineto
          -199 -603 -135 299 rlineto
          232 -98 -76 85 -140 hhcurveto
          -78 -59 -32 -42 -43 hvcurveto
          -87 vlineto
          9 15 27 9 28 hhcurveto
          74 47 -41 -188 85 hvcurveto
          167 -372 -137 -265 -140 -251 -143 -223 rlinecurve
          endchar
        </CharString>
        <CharString name="circumflex">
          1024 299 37 callsubr
          210 -200 -70 callgsubr
          endchar
        </CharString>
        <CharString name="circumflexacutecmb">
          -82 callgsubr
          -305 vmoveto
          -65 callsubr
          endchar
        </CharString>
        <CharString name="circumflexacutecmb.short">
          0 296 171 callsubr
          endchar
        </CharString>
        <CharString name="circumflexbelowcmb">
          0 -198 -471 18 callsubr
        </CharString>
        <CharString name="circumflexcmb">
          0 -213 37 callsubr
          210 -200 -70 callgsubr
          endchar
        </CharString>
        <CharString name="circumflexcmb.short">
          0 -183 1133 rmoveto
          196 149 192 -149 110 0 -215 289 -175 0 -214 -289 rlineto
          endchar
        </CharString>
        <CharString name="circumflexgravecmb">
          0 -288 -64 callgsubr
          -553 vmoveto
          -65 callsubr
          endchar
        </CharString>
        <CharString name="circumflexgravecmb.short">
          0 -296 150 callsubr
          endchar
        </CharString>
        <CharString name="circumflexhookabovecmb">
          0 224 1683 rmoveto
          -73 -69 -26 -30 -37 hvcurveto
          -76 vlineto
          16 26 52 14 48 hhcurveto
          65 37 -24 -40 -39 -35 -23 -79 -54 callgsubr
          -95 48 -104 vhcurveto
          -512 -545 rmoveto
          -65 callsubr
          endchar
        </CharString>
        <CharString name="circumflexhookabovecmb.short">
          0 241 148 callsubr
          endchar
        </CharString>
        <CharString name="circumflextildecmb">
          0 121 1467 95 callsubr
          -51 -25 -20 -39 -67 callgsubr
          74 callgsubr
          -409 -329 rmoveto
          -65 callsubr
          endchar
        </CharString>
        <CharString name="circumflextildecmb.short">
          0 124 145 callsubr
          endchar
        </CharString>
        <CharString name="colon">
          566 283 669 rmoveto
          85 69 71 85 86 -69 70 -85 -85 -69 -70 -86 -85 69 -71 85 hvcurveto
          -688 vmoveto
          121 callsubr
          endchar
        </CharString>
        <CharString name="colon.uc">
          566 283 911 35 callgsubr
          -688 vmoveto
          85 69 70 85 87 -69 69 -85 -85 -69 -69 -87 -85 69 -70 85 hvcurveto
          endchar
        </CharString>
</ttFont>
